SplineFontDB: 3.0
FontName: Bodoni-48-Fatface
FullName: Bodoni* 48 Fatface
FamilyName: Bodoni* 48 Fatface
Weight: Fatface
Copyright: Copyright (c) 2017, Owen Earl,,, (EwonRael@yahoo.com)
Version: 001.0
ItalicAngle: 0
UnderlinePosition: -408
UnderlineWidth: 204
Ascent: 3276
Descent: 820
InvalidEm: 0
LayerCount: 2
Layer: 0 0 "Back" 1
Layer: 1 0 "Fore" 0
PreferredKerning: 4
XUID: [1021 31 -699969567 16487490]
FSType: 0
OS2Version: 0
OS2_WeightWidthSlopeOnly: 0
OS2_UseTypoMetrics: 1
CreationTime: 1460762150
ModificationTime: 1574024321
PfmFamily: 17
TTFWeight: 900
TTFWidth: 5
LineGap: 0
VLineGap: 0
OS2TypoAscent: 4194
OS2TypoAOffset: 0
OS2TypoDescent: -820
OS2TypoDOffset: 0
OS2TypoLinegap: 0
OS2WinAscent: 4096
OS2WinAOffset: 0
OS2WinDescent: 1638
OS2WinDOffset: 0
HheadAscent: 4194
HheadAOffset: 0
HheadDescent: -820
HheadDOffset: 0
OS2CapHeight: 3072
OS2XHeight: 1884
OS2FamilyClass: 768
OS2Vendor: 'it* '
OS2UnicodeRanges: 00000001.00000000.00000000.00000000
Lookup: 1 0 0 "'ss02' Style Set 2 lookup 4" { "'ss02' Style Set 2 lookup 4-1"  } ['ss02' ('DFLT' <'dflt' > 'grek' <'dflt' > 'latn' <'dflt' > ) ]
Lookup: 1 0 0 "'ss03' Style Set 3 lookup 5" { "'ss03' Style Set 3 lookup 5-1"  } ['ss03' ('DFLT' <'dflt' > 'grek' <'dflt' > 'latn' <'dflt' > ) ]
Lookup: 1 0 0 "'ss01' Style Set 1 lookup 2" { "'ss01' Style Set 1 lookup 2-1"  } ['ss01' ('DFLT' <'dflt' > 'grek' <'dflt' > 'latn' <'dflt' > ) ]
Lookup: 5 0 0 "'calt' Contextual Alternates lookup 3" { "'calt' Contextual Alternates lookup 3-1"  } ['calt' ('DFLT' <'dflt' > 'grek' <'dflt' > 'latn' <'dflt' > ) ]
Lookup: 4 0 1 "'liga' Standard Ligatures lookup 0" { "'liga' Standard Ligatures lookup 0-1"  } ['liga' ('DFLT' <'dflt' > 'grek' <'dflt' > 'latn' <'dflt' > ) ]
Lookup: 258 0 0 "'kern' Horizontal Kerning lookup 0" { "kerning like they all do" [150,0,6] } ['kern' ('DFLT' <'dflt' > 'grek' <'dflt' > 'latn' <'dflt' > ) ]
MarkAttachClasses: 1
DEI: 91125
KernClass2: 31 27 "kerning like they all do"

StartChar: ampersand
Encoding: 38 38 0
GlifName: ampersand
Width: 3764
Flags: HMW
LayerCount: 2
Fore
SplineSet
1875 2037 m 9
 1868 2049 l 1
 1905 2086 1970 2129 1970 2642 c 0
 1970 2912 1930 3095 1778 3095 c 0
 1646 3095 1582 2916 1582 2744 c 0
 1582 2560 1724 2270 1900 2008 c 2
 3200 19 l 1
 3682 19 l 1
 3682 0 l 1
 2232 0 l 1
 876 2008 l 2
 770 2164 688 2366 688 2510 c 0
 688 2878 1118 3112 1798 3112 c 0
 2442 3112 2806 2936 2806 2650 c 0
 2806 2335 2371 2148 1875 2037 c 9
1071 1731 m 1
 1080 1718 l 1
 1039 1691 1017 1573 1017 1362 c 0
 1017 740 1242 106 1758 106 c 0
 2360 106 3004 891 3091 1881 c 1
 3110 1881 l 1
 3023 969 2466 -40 1224 -40 c 0
 474 -40 154 316 154 738 c 0
 154 1429 873 1644 1071 1731 c 1
2556 1884 m 1
 3538 1884 l 1
 3538 1865 l 1
 2556 1865 l 1
 2556 1884 l 1
EndSplineSet
EndChar

StartChar: period
Encoding: 46 46 1
GlifName: period
Width: 1310
Flags: HMW
LayerCount: 2
Fore
SplineSet
164 450 m 0
 164 720 386 942 656 942 c 0
 926 942 1146 720 1146 450 c 0
 1146 180 926 -40 656 -40 c 0
 386 -40 164 180 164 450 c 0
EndSplineSet
EndChar

StartChar: zero
Encoding: 48 48 2
GlifName: zero
Width: 2866
Flags: HMW
LayerCount: 2
Fore
SplineSet
1434 -41 m 0
 684 -41 164 623 164 1536 c 0
 164 2449 725 3113 1434 3113 c 0
 2143 3113 2703 2449 2703 1536 c 0
 2703 623 2184 -41 1434 -41 c 0
1434 3095 m 0
 1172 3095 1126 2486 1126 1536 c 0
 1126 586 1131 -23 1434 -23 c 0
 1737 -23 1741 586 1741 1536 c 0
 1741 2486 1737 3095 1434 3095 c 0
EndSplineSet
EndChar

StartChar: one
Encoding: 49 49 3
GlifName: one
Width: 2272
VWidth: 4730
Flags: HMW
LayerCount: 2
Fore
SplineSet
205 19 m 1
 2068 19 l 1
 2068 0 l 1
 205 0 l 1
 205 19 l 1
274 3072 m 1
 1618 3072 l 1
 1618 10 l 1
 737 10 l 1
 737 3053 l 1
 274 3053 l 1
 274 3072 l 1
EndSplineSet
EndChar

StartChar: two
Encoding: 50 50 4
GlifName: two
Width: 2662
VWidth: 4730
Flags: HMW
LayerCount: 2
Fore
SplineSet
2519 0 m 1
 164 0 l 1
 164 553 l 1
 1008 1085 l 2
 1356 1310 1532 1581 1532 2089 c 0
 1532 2638 1309 2998 990 2998 c 0
 576 2998 225 2656 223 2258 c 1
 286 2470 470 2630 698 2630 c 0
 1016 2630 1221 2420 1221 2154 c 0
 1221 1867 942 1667 676 1667 c 0
 410 1667 201 1872 201 2249 c 0
 201 2728 647 3113 1331 3113 c 0
 2031 3113 2433 2786 2433 2335 c 0
 2433 1803 1840 1569 1455 1331 c 2
 693 860 l 1
 2499 860 l 1
 2499 1167 l 1
 2519 1167 l 1
 2519 0 l 1
EndSplineSet
EndChar

StartChar: three
Encoding: 51 51 5
GlifName: three
Width: 2542
VWidth: 4730
Flags: HMW
LayerCount: 2
Fore
SplineSet
2380 860 m 0
 2380 287 1810 -41 1151 -41 c 0
 446 -41 102 385 102 762 c 0
 102 1053 307 1253 573 1253 c 0
 819 1253 999 1073 999 803 c 0
 999 549 783 369 541 369 c 0
 379 369 261 422 175 530 c 1
 256 284 557 7 1022 7 c 0
 1428 7 1475 352 1475 860 c 0
 1475 1286 1359 1650 872 1650 c 1
 872 1665 l 1
 1941 1665 2380 1352 2380 860 c 0
872 1652 m 1
 872 1668 l 1
 1318 1668 1352 2118 1352 2421 c 0
 1352 2765 1284 3066 1042 3066 c 0
 766 3066 465 2885 363 2719 c 1
 461 2827 590 2863 705 2863 c 0
 906 2863 1102 2700 1102 2454 c 0
 1102 2188 889 1999 664 1999 c 0
 418 1999 225 2147 225 2417 c 0
 225 2835 733 3109 1151 3109 c 0
 1769 3109 2257 2831 2257 2380 c 0
 2257 1970 1900 1652 872 1652 c 1
EndSplineSet
EndChar

StartChar: four
Encoding: 52 52 6
GlifName: four
Width: 2804
VWidth: 4730
Flags: HMW
LayerCount: 2
Fore
SplineSet
2621 19 m 1
 2621 0 l 1
 1044 0 l 1
 1044 19 l 1
 1434 19 l 1
 1434 2659 l 1
 180 890 l 1
 2765 890 l 1
 2765 870 l 1
 143 870 l 1
 1700 3072 l 1
 2314 3072 l 1
 2314 19 l 1
 2621 19 l 1
EndSplineSet
Substitution2: "'ss03' Style Set 3 lookup 5-1" four.alt
EndChar

StartChar: five
Encoding: 53 53 7
GlifName: five
Width: 2334
VWidth: 4730
Flags: HMW
LayerCount: 2
Fore
SplineSet
2068 2212 m 1
 211 2212 l 1
 211 1380 l 1
 193 1380 l 1
 193 3072 l 1
 2049 3072 l 1
 2049 3297 l 1
 2068 3297 l 1
 2068 2212 l 1
53 349 m 1
 136 155 442 -5 756 -5 c 0
 1121 -5 1290 332 1290 881 c 0
 1290 1512 1178 1752 854 1752 c 0
 584 1752 324 1602 219 1380 c 1
 202 1380 l 1
 308 1613 577 1802 1032 1802 c 0
 1732 1802 2212 1495 2212 881 c 0
 2212 308 1626 -41 885 -41 c 0
 426 -41 -41 151 -41 610 c 0
 -41 901 172 1110 438 1110 c 0
 704 1110 918 942 918 655 c 0
 918 389 680 164 404 164 c 0
 254 164 134 235 53 349 c 1
EndSplineSet
EndChar

StartChar: six
Encoding: 54 54 8
GlifName: six
Width: 2702
VWidth: 4730
Flags: HMW
LayerCount: 2
Fore
SplineSet
1638 1024 m 0
 1638 1778 1562 1948 1402 1948 c 0
 1201 1948 1147 1761 1147 1147 c 1
 1131 1147 l 1
 1131 1737 1147 2028 1561 2028 c 0
 2057 2028 2580 1720 2580 1024 c 0
 2580 410 2109 -41 1409 -41 c 0
 709 -41 205 410 205 1270 c 0
 205 2265 1032 3113 2273 3113 c 1
 2273 3095 l 1
 1519 3095 1143 2255 1143 1410 c 1
 1147 1147 l 1
 1147 393 1220 -21 1421 -21 c 0
 1622 -21 1638 352 1638 1024 c 0
EndSplineSet
EndChar

StartChar: seven
Encoding: 55 55 9
GlifName: seven
Width: 2354
VWidth: 4730
Flags: HMW
LayerCount: 2
Fore
SplineSet
524 434 m 0
 524 758 1008 1104 1326 1548 c 0
 1446 1716 1534 1835 1754 2191 c 1
 183 2191 l 1
 183 1884 l 1
 164 1884 l 1
 164 3072 l 1
 2314 3072 l 1
 2314 3072 1746 2097 1390 1589 c 0
 1173 1278 1118 1218 1118 1114 c 0
 1118 897 1548 835 1548 442 c 0
 1548 168 1343 -41 1040 -41 c 0
 757 -41 524 110 524 434 c 0
EndSplineSet
EndChar

StartChar: eight
Encoding: 56 56 10
GlifName: eight
Width: 2662
VWidth: 4730
Flags: HMW
LayerCount: 2
Fore
SplineSet
1147 2294 m 0
 1147 1745 1212 1618 1331 1618 c 0
 1450 1618 1516 1745 1516 2294 c 0
 1516 2802 1450 3031 1331 3031 c 0
 1212 3031 1147 2802 1147 2294 c 0
246 2294 m 0
 246 2745 631 3113 1331 3113 c 0
 2031 3113 2417 2745 2417 2294 c 0
 2417 1843 2031 1556 1331 1556 c 0
 631 1556 246 1843 246 2294 c 0
1065 778 m 0
 1065 311 1130 41 1331 41 c 0
 1532 41 1597 311 1597 778 c 0
 1597 1245 1532 1536 1331 1536 c 0
 1130 1536 1065 1245 1065 778 c 0
164 778 m 0
 164 1270 549 1597 1331 1597 c 0
 2113 1597 2499 1270 2499 778 c 0
 2499 286 2113 -41 1331 -41 c 0
 549 -41 164 286 164 778 c 0
EndSplineSet
EndChar

StartChar: A
Encoding: 65 65 12
GlifName: A_
Width: 3398
Flags: HMW
LayerCount: 2
Fore
SplineSet
61 19 m 1
 963 19 l 1
 963 0 l 1
 61 0 l 1
 61 19 l 1
1741 19 m 1
 3338 19 l 1
 3338 0 l 1
 1741 0 l 1
 1741 19 l 1
804 1014 m 1
 2109 1014 l 1
 2109 994 l 1
 804 994 l 1
 804 1014 l 1
1281 2306 m 1
 467 0 l 1
 441 0 l 1
 1551 3133 l 1
 1966 3133 l 1
 3052 0 l 1
 2028 0 l 1
 1281 2306 l 1
EndSplineSet
EndChar

StartChar: B
Encoding: 66 66 13
GlifName: B_
Width: 3132
Flags: HMW
LayerCount: 2
Fore
SplineSet
1659 1570 m 2
 1126 1570 l 1
 1126 1588 l 1
 1495 1588 l 2
 1765 1588 1946 1786 1946 2273 c 0
 1946 2760 1765 3053 1495 3053 c 2
 61 3053 l 1
 61 3072 l 1
 1659 3072 l 2
 2400 3072 2847 2846 2847 2314 c 0
 2847 1822 2441 1570 1659 1570 c 2
430 3072 m 1
 1311 3072 l 1
 1311 0 l 1
 430 0 l 1
 430 3072 l 1
1741 0 m 2
 61 0 l 1
 61 19 l 1
 1536 19 l 2
 1847 19 2028 373 2028 860 c 0
 2028 1347 1847 1566 1536 1566 c 2
 1126 1566 l 1
 1126 1584 l 1
 1741 1584 l 2
 2441 1584 2970 1392 2970 778 c 0
 2970 205 2523 0 1741 0 c 2
EndSplineSet
EndChar

StartChar: C
Encoding: 67 67 14
GlifName: C_
Width: 3010
Flags: HMW
LayerCount: 2
Fore
SplineSet
2790 3072 m 1
 2806 3072 l 1
 2806 2109 l 1
 2650 2376 2513 2651 2282 2881 c 1
 2790 3072 l 1
2806 2109 m 1
 2781 2109 l 1
 2499 2668 2217 3077 1761 3077 c 0
 1253 3077 1126 2281 1126 1536 c 0
 1126 791 1253 -5 1761 -5 c 0
 2310 -5 2580 429 2824 963 c 1
 2847 963 l 1
 2601 377 2306 -41 1720 -41 c 0
 725 -41 164 623 164 1536 c 0
 164 2449 725 3113 1720 3113 c 0
 2244 3113 2519 2695 2806 2109 c 1
2847 963 m 1
 2847 0 l 1
 2830 0 l 1
 2364 216 l 1
 2605 455 2719 711 2847 963 c 1
EndSplineSet
EndChar

StartChar: D
Encoding: 68 68 15
GlifName: D_
Width: 3338
Flags: HMW
LayerCount: 2
Fore
SplineSet
430 3072 m 1
 1311 3072 l 1
 1311 0 l 1
 430 0 l 1
 430 3072 l 1
1536 0 m 2
 61 0 l 1
 61 19 l 1
 1536 19 l 2
 2044 19 2212 668 2212 1536 c 0
 2212 2404 2003 3053 1536 3053 c 2
 61 3053 l 1
 61 3072 l 1
 1536 3072 l 2
 2572 3072 3174 2490 3174 1536 c 0
 3174 582 2531 0 1536 0 c 2
EndSplineSet
EndChar

StartChar: E
Encoding: 69 69 16
GlifName: E_
Width: 2744
Flags: HMW
LayerCount: 2
Fore
SplineSet
2603 922 m 1
 2621 922 l 1
 2621 0 l 1
 61 0 l 1
 61 19 l 1
 1516 19 l 2
 2077 19 2480 402 2603 922 c 1
430 3072 m 1
 1311 3072 l 1
 1311 0 l 1
 430 0 l 1
 430 3072 l 1
61 3072 m 1
 2580 3072 l 1
 2580 2232 l 1
 2561 2232 l 1
 2438 2670 2035 3053 1556 3053 c 2
 61 3053 l 1
 61 3072 l 1
1987 1016 m 1
 1864 1290 1585 1580 1352 1580 c 2
 1106 1580 l 1
 1106 1600 l 1
 1352 1600 l 2
 1585 1600 1864 1868 1987 2142 c 1
 2007 2142 l 1
 2007 1016 l 1
 1987 1016 l 1
EndSplineSet
EndChar

StartChar: F
Encoding: 70 70 17
GlifName: F_
Width: 2620
Flags: HMW
LayerCount: 2
Fore
SplineSet
61 3072 m 1
 2499 3072 l 1
 2499 2232 l 1
 2479 2232 l 1
 2356 2670 2035 3053 1597 3053 c 2
 61 3053 l 1
 61 3072 l 1
61 19 m 1
 1720 19 l 1
 1720 0 l 1
 61 0 l 1
 61 19 l 1
430 3072 m 1
 1311 3072 l 1
 1311 0 l 1
 430 0 l 1
 430 3072 l 1
1947 934 m 1
 1824 1208 1605 1518 1331 1518 c 2
 1065 1518 l 1
 1065 1538 l 1
 1331 1538 l 2
 1605 1538 1824 1827 1947 2101 c 1
 1966 2101 l 1
 1966 934 l 1
 1947 934 l 1
EndSplineSet
EndChar

StartChar: G
Encoding: 71 71 18
GlifName: G_
Width: 3276
Flags: HMW
LayerCount: 2
Fore
SplineSet
2970 2109 m 1
 2787 2544 2553 2754 2356 2911 c 1
 2954 3072 l 1
 2970 3072 l 1
 2970 2109 l 1
1720 1178 m 1
 3236 1178 l 1
 3236 1158 l 1
 1720 1158 l 1
 1720 1178 l 1
2150 1165 m 1
 3072 1165 l 1
 3072 594 l 1
 2662 295 2409 -41 1741 -41 c 0
 766 -41 164 541 164 1536 c 0
 164 2531 971 3113 1802 3113 c 0
 2326 3113 2792 2613 2970 2109 c 1
 2951 2109 l 1
 2787 2486 2385 3074 1867 3074 c 0
 1359 3074 1126 2281 1126 1536 c 0
 1126 791 1254 -15 1741 -15 c 0
 1921 -15 2068 258 2150 512 c 1
 2150 1165 l 1
EndSplineSet
EndChar

StartChar: H
Encoding: 72 72 19
GlifName: H_
Width: 3480
Flags: HMW
LayerCount: 2
Fore
SplineSet
1229 1526 m 1
 2253 1526 l 1
 2253 1506 l 1
 1229 1506 l 1
 1229 1526 l 1
1843 19 m 1
 3420 19 l 1
 3420 0 l 1
 1843 0 l 1
 1843 19 l 1
61 19 m 1
 1638 19 l 1
 1638 0 l 1
 61 0 l 1
 61 19 l 1
1843 3072 m 1
 3420 3072 l 1
 3420 3053 l 1
 1843 3053 l 1
 1843 3072 l 1
61 3072 m 1
 1638 3072 l 1
 1638 3053 l 1
 61 3053 l 1
 61 3072 l 1
2171 3072 m 1
 3052 3072 l 1
 3052 0 l 1
 2171 0 l 1
 2171 3072 l 1
430 3072 m 1
 1311 3072 l 1
 1311 0 l 1
 430 0 l 1
 430 3072 l 1
EndSplineSet
EndChar

StartChar: I
Encoding: 73 73 20
GlifName: I_
Width: 1944
Flags: HMW
LayerCount: 2
Fore
SplineSet
61 19 m 1
 1884 19 l 1
 1884 0 l 1
 61 0 l 1
 61 19 l 1
61 3072 m 1
 1884 3072 l 1
 1884 3053 l 1
 61 3053 l 1
 61 3072 l 1
512 3072 m 1
 1393 3072 l 1
 1393 0 l 1
 512 0 l 1
 512 3072 l 1
EndSplineSet
EndChar

StartChar: J
Encoding: 74 74 21
GlifName: J_
Width: 2624
Flags: HMW
LayerCount: 2
Fore
SplineSet
741 3072 m 1
 2564 3072 l 1
 2564 3053 l 1
 741 3053 l 1
 741 3072 l 1
1274 3072 m 1
 2154 3072 l 1
 2154 696 l 1
 1908 204 1626 -123 926 -123 c 0
 406 -123 41 102 41 512 c 0
 41 807 274 1024 561 1024 c 0
 827 1024 1036 828 1036 537 c 0
 1036 291 840 49 582 49 c 0
 401 49 237 108 176 181 c 1
 295 -1 598 -103 903 -103 c 0
 1194 -103 1274 205 1274 778 c 2
 1274 3072 l 1
EndSplineSet
Substitution2: "'ss02' Style Set 2 lookup 4-1" J.alt
EndChar

StartChar: K
Encoding: 75 75 22
GlifName: K_
Width: 3502
Flags: HMW
LayerCount: 2
Fore
SplineSet
61 19 m 1
 1638 19 l 1
 1638 0 l 1
 61 0 l 1
 61 19 l 1
61 3072 m 1
 1720 3072 l 1
 1720 3053 l 1
 61 3053 l 1
 61 3072 l 1
430 3072 m 1
 1311 3072 l 1
 1311 0 l 1
 430 0 l 1
 430 3072 l 1
733 889 m 1
 705 889 l 1
 2810 3064 l 1
 2839 3064 l 1
 733 889 l 1
1802 19 m 1
 3482 19 l 1
 3482 0 l 1
 1802 0 l 1
 1802 19 l 1
3297 3053 m 1
 2314 3053 l 1
 2314 3072 l 1
 3297 3072 l 1
 3297 3053 l 1
3162 0 m 1
 2179 0 l 1
 1319 1506 l 1
 1913 2130 l 1
 3162 0 l 1
EndSplineSet
EndChar

StartChar: L
Encoding: 76 76 23
GlifName: L_
Width: 2702
Flags: HMW
LayerCount: 2
Fore
SplineSet
430 3072 m 1
 1311 3072 l 1
 1311 0 l 1
 430 0 l 1
 430 3072 l 1
61 3072 m 1
 1679 3072 l 1
 1679 3053 l 1
 61 3053 l 1
 61 3072 l 1
2621 0 m 1
 61 0 l 1
 61 19 l 1
 1516 19 l 2
 2077 19 2480 402 2603 922 c 1
 2621 922 l 1
 2621 0 l 1
EndSplineSet
EndChar

StartChar: M
Encoding: 77 77 24
GlifName: M_
Width: 3850
Flags: HMW
LayerCount: 2
Fore
SplineSet
3789 3072 m 1
 3789 3053 l 1
 3502 3053 l 1
 3502 0 l 1
 2621 0 l 1
 2621 3072 l 1
 3789 3072 l 1
82 19 m 1
 710 19 l 1
 710 0 l 1
 82 0 l 1
 82 19 l 1
2294 19 m 1
 3789 19 l 1
 3789 0 l 1
 2294 0 l 1
 2294 19 l 1
1963 1217 m 1
 2612 3072 l 1
 2632 3072 l 1
 1547 -41 l 1
 1520 -41 l 1
 381 3072 l 1
 1266 3072 l 1
 1963 1217 l 1
375 3053 m 1
 61 3053 l 1
 61 3072 l 1
 397 3072 l 1
 397 0 l 1
 375 0 l 1
 375 3053 l 1
EndSplineSet
EndChar

StartChar: N
Encoding: 78 78 25
GlifName: N_
Width: 3144
Flags: HMW
LayerCount: 2
Fore
SplineSet
2634 3072 m 1
 2654 3072 l 1
 2654 -41 l 1
 2626 -41 l 1
 471 3072 l 1
 1516 3072 l 1
 2634 1462 l 1
 2634 3072 l 1
2183 3072 m 1
 3084 3072 l 1
 3084 3053 l 1
 2183 3053 l 1
 2183 3072 l 1
61 19 m 1
 948 19 l 1
 948 0 l 1
 61 0 l 1
 61 19 l 1
470 3053 m 1
 61 3053 l 1
 61 3072 l 1
 491 3072 l 1
 491 0 l 1
 470 0 l 1
 470 3053 l 1
EndSplineSet
EndChar

StartChar: O
Encoding: 79 79 26
GlifName: O_
Width: 3276
Flags: HMW
LayerCount: 2
Fore
SplineSet
1638 -41 m 0
 725 -41 164 623 164 1536 c 0
 164 2449 766 3113 1638 3113 c 0
 2510 3113 3113 2449 3113 1536 c 0
 3113 623 2551 -41 1638 -41 c 0
1638 3095 m 0
 1253 3095 1126 2486 1126 1536 c 0
 1126 586 1212 -23 1638 -23 c 0
 2064 -23 2150 586 2150 1536 c 0
 2150 2486 2023 3095 1638 3095 c 0
EndSplineSet
EndChar

StartChar: P
Encoding: 80 80 27
GlifName: P_
Width: 3010
Flags: HMW
LayerCount: 2
Fore
SplineSet
430 3072 m 1
 1311 3072 l 1
 1311 0 l 1
 430 0 l 1
 430 3072 l 1
61 19 m 1
 1679 19 l 1
 1679 0 l 1
 61 0 l 1
 61 19 l 1
1679 1382 m 2
 1024 1382 l 1
 1024 1402 l 1
 1516 1402 l 2
 1827 1402 1925 1847 1925 2212 c 0
 1925 2577 1827 3053 1516 3053 c 2
 61 3053 l 1
 61 3072 l 1
 1679 3072 l 2
 2502 3072 2867 2744 2867 2212 c 0
 2867 1680 2502 1382 1679 1382 c 2
EndSplineSet
EndChar

StartChar: Q
Encoding: 81 81 28
GlifName: Q_
Width: 3276
Flags: HMW
LayerCount: 2
Fore
SplineSet
1638 -41 m 0
 725 -41 164 623 164 1536 c 0
 164 2449 766 3113 1638 3113 c 0
 2510 3113 3113 2449 3113 1536 c 0
 3113 623 2551 -41 1638 -41 c 0
1638 3095 m 0
 1253 3095 1126 2486 1126 1536 c 0
 1126 586 1212 -23 1638 -23 c 0
 2064 -23 2150 586 2150 1536 c 0
 2150 2486 2023 3095 1638 3095 c 0
2580 -1005 m 1
 2580 -1024 l 1
 1421 -1024 1147 -872 1147 41 c 1
 1476 -56 1800 -57 2109 41 c 1
 2109 -704 2113 -1005 2580 -1005 c 1
EndSplineSet
EndChar

StartChar: R
Encoding: 82 82 29
GlifName: R_
Width: 3234
Flags: HMW
LayerCount: 2
Fore
SplineSet
1577 1571 m 2
 799 1571 l 1
 799 1588 l 1
 1372 1588 l 2
 1765 1588 1946 1786 1946 2314 c 0
 1946 2842 1765 3053 1372 3053 c 2
 61 3053 l 1
 61 3072 l 1
 1577 3072 l 2
 2318 3072 2847 2846 2847 2314 c 0
 2847 1782 2359 1571 1577 1571 c 2
61 19 m 1
 1679 19 l 1
 1679 0 l 1
 61 0 l 1
 61 19 l 1
430 3072 m 1
 1311 3072 l 1
 1311 0 l 1
 430 0 l 1
 430 3072 l 1
3195 61 m 1
 3129 24 2891 -41 2580 -41 c 0
 1298 -41 2401 1566 1393 1566 c 2
 799 1566 l 1
 799 1581 l 1
 1966 1581 l 2
 3248 1581 2449 21 2953 21 c 0
 3039 21 3130 50 3187 77 c 1
 3195 61 l 1
EndSplineSet
Substitution2: "'ss01' Style Set 1 lookup 2-1" R.alt
EndChar

StartChar: S
Encoding: 83 83 30
GlifName: S_
Width: 2600
Flags: HMW
LayerCount: 2
Fore
SplineSet
2273 2109 m 1
 2250 2109 l 1
 2004 2670 1692 3090 1182 3090 c 0
 912 3090 778 2884 778 2642 c 0
 778 2007 2437 2171 2437 942 c 0
 2437 328 1909 -61 1331 -61 c 0
 692 -61 385 552 164 1044 c 1
 186 1044 l 1
 405 565 714 -40 1326 -40 c 0
 1678 -40 1864 229 1864 512 c 0
 1864 1229 205 921 205 2232 c 0
 205 2805 680 3113 1176 3113 c 0
 1700 3113 2027 2687 2273 2109 c 1
2258 3113 m 1
 2273 3113 l 1
 2273 2109 l 1
 2110 2455 1973 2682 1737 2908 c 1
 2258 3113 l 1
180 -41 m 1
 164 -41 l 1
 164 1044 l 1
 359 642 517 379 725 180 c 1
 180 -41 l 1
EndSplineSet
EndChar

StartChar: T
Encoding: 84 84 31
GlifName: T_
Width: 2968
Flags: HMW
LayerCount: 2
Fore
SplineSet
594 19 m 1
 2376 19 l 1
 2376 0 l 1
 594 0 l 1
 594 19 l 1
1044 3062 m 1
 1925 3062 l 1
 1925 0 l 1
 1044 0 l 1
 1044 3062 l 1
2048 3053 m 2
 922 3053 l 2
 525 3053 204 2548 81 2028 c 1
 61 2028 l 1
 61 3072 l 1
 2908 3072 l 1
 2908 2028 l 1
 2889 2028 l 1
 2766 2548 2445 3053 2048 3053 c 2
EndSplineSet
EndChar

StartChar: U
Encoding: 85 85 32
GlifName: U_
Width: 3072
Flags: HMW
LayerCount: 2
Fore
SplineSet
2212 3072 m 1
 3011 3072 l 1
 3011 3053 l 1
 2212 3053 l 1
 2212 3072 l 1
61 3072 m 1
 1720 3072 l 1
 1720 3053 l 1
 61 3053 l 1
 61 3072 l 1
2590 3072 m 1
 2612 3072 l 1
 2612 942 l 2
 2612 266 2306 -61 1618 -61 c 0
 787 -61 430 233 430 942 c 2
 430 3072 l 1
 1311 3072 l 1
 1311 983 l 2
 1311 442 1380 1 1847 1 c 0
 2261 1 2590 274 2590 942 c 2
 2590 3072 l 1
EndSplineSet
EndChar

StartChar: V
Encoding: 86 86 33
GlifName: V_
Width: 3358
Flags: HMW
LayerCount: 2
Fore
SplineSet
3318 3053 m 1
 2417 3053 l 1
 2417 3072 l 1
 3318 3072 l 1
 3318 3053 l 1
1802 3053 m 1
 41 3053 l 1
 41 3072 l 1
 1802 3072 l 1
 1802 3053 l 1
2099 769 m 1
 2915 3072 l 1
 2937 3072 l 1
 1827 -61 l 1
 1413 -61 l 1
 328 3072 l 1
 1352 3072 l 1
 2099 769 l 1
EndSplineSet
EndChar

StartChar: W
Encoding: 87 87 34
GlifName: W_
Width: 5038
Flags: HMW
LayerCount: 2
Fore
SplineSet
2733 1946 m 1
 1964 -41 l 1
 1618 -41 l 1
 324 3072 l 1
 1356 3072 l 1
 2277 831 l 1
 2740 2023 l 1
 2733 1946 l 1
3135 1868 m 1
 3138 1942 l 1
 3600 3072 l 1
 3621 3072 l 1
 3135 1868 l 1
4997 3053 m 1
 4178 3053 l 1
 4178 3072 l 1
 4997 3072 l 1
 4997 3053 l 1
2789 3072 m 1
 3711 831 l 1
 4588 3072 l 1
 4609 3072 l 1
 3399 -41 l 1
 3178 -41 l 1
 1880 3072 l 1
 2789 3072 l 1
4014 3053 m 1
 41 3053 l 1
 41 3072 l 1
 4014 3072 l 1
 4014 3053 l 1
EndSplineSet
EndChar

StartChar: X
Encoding: 88 88 35
GlifName: X_
Width: 3480
Flags: HMW
LayerCount: 2
Fore
SplineSet
1744 1544 m 1
 1716 1544 l 1
 2769 3064 l 1
 2794 3064 l 1
 1744 1544 l 1
508 0 m 1
 481 0 l 1
 1691 1708 l 1
 1720 1708 l 1
 508 0 l 1
1802 19 m 1
 3441 19 l 1
 3441 0 l 1
 1802 0 l 1
 1802 19 l 1
41 19 m 1
 1024 19 l 1
 1024 0 l 1
 41 0 l 1
 41 19 l 1
1823 3053 m 1
 184 3053 l 1
 184 3072 l 1
 1823 3072 l 1
 1823 3053 l 1
3215 3053 m 1
 2314 3053 l 1
 2314 3072 l 1
 3215 3072 l 1
 3215 3053 l 1
3178 0 m 1
 2195 0 l 1
 430 3072 l 1
 1397 3072 l 1
 3178 0 l 1
EndSplineSet
EndChar

StartChar: Y
Encoding: 89 89 36
GlifName: Y_
Width: 3132
Flags: HMW
LayerCount: 2
Fore
SplineSet
3092 3053 m 1
 2232 3053 l 1
 2232 3072 l 1
 3092 3072 l 1
 3092 3053 l 1
1720 3053 m 1
 41 3053 l 1
 41 3072 l 1
 1720 3072 l 1
 1720 3053 l 1
799 19 m 1
 2458 19 l 1
 2458 0 l 1
 799 0 l 1
 799 19 l 1
2037 1595 m 1
 2708 3064 l 1
 2733 3064 l 1
 2048 1569 l 1
 2048 0 l 1
 1167 0 l 1
 1167 1475 l 1
 287 3072 l 1
 1311 3072 l 1
 2037 1595 l 1
EndSplineSet
EndChar

StartChar: Z
Encoding: 90 90 37
GlifName: Z_
Width: 2764
Flags: HMW
LayerCount: 2
Fore
SplineSet
123 3072 m 1
 2580 3072 l 1
 2580 3053 l 1
 1044 19 l 1
 1638 19 l 2
 2199 19 2439 381 2603 901 c 1
 2621 901 l 1
 2621 0 l 1
 41 0 l 1
 41 19 l 1
 1577 3053 l 1
 1106 3053 l 2
 545 3053 307 2691 143 2253 c 1
 123 2253 l 1
 123 3072 l 1
EndSplineSet
EndChar

StartChar: a
Encoding: 97 97 38
GlifName: a
Width: 2587
VWidth: 4730
Flags: HMW
LayerCount: 2
Fore
SplineSet
2587 258 m 1
 2493 53 2240 -41 1941 -41 c 0
 1626 -41 1359 57 1359 340 c 2
 1359 1249 l 2
 1359 1605 1232 1889 945 1889 c 0
 746 1889 552 1808 479 1754 c 1
 806 1895 1133 1720 1133 1466 c 0
 1133 1261 912 1110 687 1110 c 0
 441 1110 269 1270 269 1458 c 0
 269 1732 626 1917 1081 1917 c 0
 1818 1917 2137 1663 2137 1249 c 2
 2137 201 l 2
 2137 119 2191 59 2289 59 c 0
 2349 59 2484 94 2572 262 c 1
 2587 258 l 1
1023 1038 m 2
 1571 1038 l 1
 1571 1018 l 1
 1309 1018 l 2
 1121 1018 953 799 953 545 c 0
 953 323 1025 236 1127 236 c 0
 1214 236 1359 327 1359 741 c 1
 1375 741 l 1
 1375 233 1134 -41 679 -41 c 0
 355 -41 125 160 125 463 c 0
 125 807 441 1038 1023 1038 c 2
EndSplineSet
EndChar

StartChar: b
Encoding: 98 98 39
GlifName: b
Width: 2719
VWidth: 4730
Flags: HMW
LayerCount: 2
Fore
SplineSet
1094 942 m 0
 1094 1565 1317 1921 1747 1921 c 0
 2193 1921 2617 1556 2617 942 c 0
 2617 328 2193 -41 1747 -41 c 0
 1321 -41 1094 319 1094 942 c 0
1109 942 m 0
 1109 330 1359 35 1557 35 c 0
 1696 35 1735 311 1735 942 c 0
 1735 1573 1696 1845 1557 1845 c 0
 1359 1845 1109 1554 1109 942 c 0
331 3053 m 1
 43 3053 l 1
 43 3072 l 1
 1109 3072 l 1
 1109 0 l 1
 43 0 l 1
 43 19 l 1
 331 19 l 1
 331 3053 l 1
EndSplineSet
EndChar

StartChar: c
Encoding: 99 99 40
GlifName: c
Width: 2215
VWidth: 4730
Flags: HMW
LayerCount: 2
Fore
SplineSet
1942 1632 m 1
 1858 1751 1583 1897 1328 1897 c 0
 1045 1897 1027 1327 1027 942 c 0
 1027 475 1117 15 1365 15 c 0
 1684 15 1941 242 2043 586 c 1
 2063 586 l 1
 1957 230 1699 -41 1203 -41 c 0
 544 -41 105 246 105 942 c 0
 105 1556 486 1925 1227 1925 c 0
 1686 1925 2091 1671 2091 1335 c 0
 2091 1085 1921 938 1675 938 c 0
 1450 938 1235 1045 1235 1352 c 0
 1235 1618 1467 1741 1627 1741 c 0
 1781 1741 1870 1700 1942 1632 c 1
EndSplineSet
EndChar

StartChar: d
Encoding: 100 100 41
GlifName: d
Width: 2719
VWidth: 4730
Flags: HMW
LayerCount: 2
Fore
SplineSet
1629 939 m 0
 1629 316 1403 -41 973 -41 c 0
 527 -41 105 325 105 939 c 0
 105 1553 527 1921 973 1921 c 0
 1399 1921 1629 1562 1629 939 c 0
1613 939 m 0
 1613 1563 1358 1845 1165 1845 c 0
 1026 1845 987 1575 987 939 c 0
 987 303 1032 42 1171 42 c 0
 1364 42 1613 315 1613 939 c 0
2677 19 m 1
 2677 0 l 1
 1613 0 l 1
 1613 3053 l 1
 1327 3053 l 1
 1327 3072 l 1
 2391 3072 l 1
 2391 19 l 1
 2677 19 l 1
EndSplineSet
EndChar

StartChar: e
Encoding: 101 101 42
GlifName: e
Width: 2207
VWidth: 4730
Flags: HMW
LayerCount: 2
Fore
SplineSet
379 1058 m 1
 379 1080 l 1
 1317 1080 l 1
 1313 1476 1309 1905 1149 1905 c 0
 989 1905 945 1491 945 1024 c 0
 945 434 1011 12 1335 12 c 0
 1689 12 1984 246 2086 586 c 1
 2105 586 l 1
 1999 230 1700 -41 1163 -41 c 0
 545 -41 105 287 105 942 c 0
 105 1597 531 1925 1149 1925 c 0
 1759 1925 2101 1504 2101 1058 c 1
 379 1058 l 1
EndSplineSet
EndChar

StartChar: f
Encoding: 102 102 43
GlifName: f
Width: 1725
VWidth: 4730
Flags: HMW
LayerCount: 2
Fore
SplineSet
23 19 m 1
 1621 19 l 1
 1621 0 l 1
 23 0 l 1
 23 19 l 1
23 1884 m 1
 1703 1884 l 1
 1703 1865 l 1
 23 1865 l 1
 23 1884 l 1
2108 2814 m 1
 2049 2904 1899 3093 1573 3093 c 0
 1245 3093 1129 2732 1129 2212 c 2
 1129 0 l 1
 393 0 l 1
 393 2097 l 2
 393 2715 912 3113 1567 3113 c 0
 1940 3113 2195 2859 2195 2585 c 0
 2195 2335 2043 2167 1797 2167 c 0
 1572 2167 1363 2306 1363 2552 c 0
 1363 2785 1552 2957 1761 2957 c 0
 1919 2957 2027 2892 2108 2814 c 1
EndSplineSet
EndChar

StartChar: g
Encoding: 103 103 44
GlifName: g
Width: 2737
VWidth: 4730
Flags: HMW
LayerCount: 2
Fore
SplineSet
175 233 m 0
 175 548 710 673 1099 673 c 1
 1097 660 l 1
 921 660 617 627 617 506 c 0
 617 416 830 406 1055 406 c 0
 1198 406 1354 410 1469 410 c 0
 1776 410 2195 221 2195 -336 c 0
 2195 -832 1784 -1065 1129 -1065 c 0
 625 -1065 43 -942 43 -588 c 0
 43 -250 535 -215 719 -215 c 2
 761 -215 l 1
 659 -268 637 -439 637 -488 c 0
 637 -848 853 -1039 1164 -1039 c 0
 1509 -1039 2025 -963 2025 -585 c 0
 2025 -364 1723 -242 1457 -242 c 0
 1330 -242 1081 -242 991 -242 c 0
 622 -242 175 -144 175 233 c 0
945 1290 m 0
 945 905 966 675 1085 675 c 0
 1163 675 1223 905 1223 1290 c 0
 1223 1675 1163 1905 1085 1905 c 0
 1007 1905 945 1675 945 1290 c 0
147 1290 m 0
 147 1741 630 1925 1085 1925 c 0
 1540 1925 2023 1741 2023 1290 c 0
 2023 839 1540 655 1085 655 c 0
 630 655 147 839 147 1290 c 0
2673 1613 m 1
 2632 1737 2505 1885 2247 1885 c 0
 2007 1885 1773 1770 1691 1414 c 1
 1675 1421 l 1
 1757 1794 2001 1905 2247 1905 c 0
 2579 1905 2715 1667 2715 1511 c 0
 2715 1245 2546 1163 2403 1163 c 0
 2260 1163 2097 1253 2097 1470 c 0
 2097 1626 2216 1765 2392 1765 c 0
 2532 1765 2641 1685 2673 1613 c 1
EndSplineSet
EndChar

StartChar: h
Encoding: 104 104 45
GlifName: h
Width: 2687
VWidth: 4730
Flags: HMW
LayerCount: 2
Fore
SplineSet
1579 1332 m 2
 1579 1676 1548 1717 1433 1717 c 0
 1218 1717 1109 1293 1109 913 c 1
 1094 913 l 1
 1094 1334 1191 1925 1777 1925 c 0
 2215 1925 2359 1663 2359 1307 c 2
 2359 0 l 1
 1579 0 l 1
 1579 1332 l 2
1417 19 m 1
 2645 19 l 1
 2645 0 l 1
 1417 0 l 1
 1417 19 l 1
43 19 m 1
 1273 19 l 1
 1273 0 l 1
 43 0 l 1
 43 19 l 1
331 3053 m 1
 43 3053 l 1
 43 3072 l 1
 1109 3072 l 1
 1109 0 l 1
 331 0 l 1
 331 3053 l 1
EndSplineSet
EndChar

StartChar: i
Encoding: 105 105 46
GlifName: i
Width: 1418
VWidth: 4730
Flags: HMW
LayerCount: 2
Fore
SplineSet
65 19 m 1
 1417 19 l 1
 1417 0 l 1
 65 0 l 1
 65 19 l 1
249 2662 m 0
 249 2920 441 3113 699 3113 c 0
 957 3113 1149 2920 1149 2662 c 0
 1149 2404 957 2212 699 2212 c 0
 441 2212 249 2404 249 2662 c 0
351 1865 m 1
 65 1865 l 1
 65 1884 l 1
 1129 1884 l 1
 1129 0 l 1
 351 0 l 1
 351 1865 l 1
EndSplineSet
EndChar

StartChar: j
Encoding: 106 106 47
GlifName: j
Width: 1467
VWidth: 4730
Flags: HMW
LayerCount: 2
Fore
SplineSet
319 2662 m 0
 319 2920 511 3113 769 3113 c 0
 1027 3113 1219 2920 1219 2662 c 0
 1219 2404 1027 2212 769 2212 c 0
 511 2212 319 2404 319 2662 c 0
1191 1884 m 1
 1191 -49 l 2
 1191 -586 671 -1065 57 -1065 c 0
 -357 -1065 -693 -843 -693 -536 c 0
 -693 -290 -488 -119 -255 -119 c 0
 -30 -119 179 -258 179 -504 c 0
 179 -729 17 -897 -266 -897 c 0
 -489 -897 -597 -784 -634 -664 c 1
 -604 -847 -338 -1033 -24 -1033 c 0
 468 -1033 396 -428 396 92 c 2
 413 1865 l 1
 43 1865 l 1
 43 1884 l 1
 1191 1884 l 1
EndSplineSet
EndChar

StartChar: k
Encoding: 107 107 48
GlifName: k
Width: 2813
VWidth: 4730
Flags: HMW
LayerCount: 2
Fore
SplineSet
2657 0 m 1
 1703 0 l 1
 995 1110 l 1
 2191 1884 l 1
 2221 1884 l 1
 1597 1476 l 1
 2657 0 l 1
1473 19 m 1
 2813 19 l 1
 2813 0 l 1
 1473 0 l 1
 1473 19 l 1
2551 1865 m 1
 1637 1865 l 1
 1637 1884 l 1
 2551 1884 l 1
 2551 1865 l 1
43 19 m 1
 1355 19 l 1
 1355 0 l 1
 43 0 l 1
 43 19 l 1
413 3053 m 1
 43 3053 l 1
 43 3072 l 1
 1191 3072 l 1
 1191 0 l 1
 413 0 l 1
 413 3053 l 1
EndSplineSet
EndChar

StartChar: l
Encoding: 108 108 49
GlifName: l
Width: 1601
VWidth: 4730
Flags: HMW
LayerCount: 2
Fore
SplineSet
43 19 m 1
 1559 19 l 1
 1559 0 l 1
 43 0 l 1
 43 19 l 1
413 3053 m 1
 43 3053 l 1
 43 3072 l 1
 1191 3072 l 1
 1191 0 l 1
 413 0 l 1
 413 3053 l 1
EndSplineSet
EndChar

StartChar: m
Encoding: 109 109 50
GlifName: m
Width: 3773
VWidth: 4730
Flags: HMW
LayerCount: 2
Fore
SplineSet
2277 1307 m 2
 2277 0 l 1
 1499 0 l 1
 1499 1332 l 2
 1499 1676 1442 1724 1367 1724 c 0
 1218 1724 1109 1345 1109 913 c 1
 1094 913 l 1
 1094 1334 1149 1925 1735 1925 c 0
 2132 1925 2277 1663 2277 1307 c 2
43 19 m 1
 1253 19 l 1
 1253 0 l 1
 43 0 l 1
 43 19 l 1
1355 19 m 1
 2419 19 l 1
 2419 0 l 1
 1355 0 l 1
 1355 19 l 1
2523 19 m 1
 3731 19 l 1
 3731 0 l 1
 2523 0 l 1
 2523 19 l 1
331 1865 m 1
 43 1865 l 1
 43 1884 l 1
 1109 1884 l 1
 1109 0 l 1
 331 0 l 1
 331 1865 l 1
3443 1307 m 2
 3443 0 l 1
 2665 0 l 1
 2665 1332 l 2
 2665 1676 2611 1724 2535 1724 c 0
 2386 1724 2277 1345 2277 913 c 1
 2262 913 l 1
 2262 1334 2313 1925 2903 1925 c 0
 3300 1925 3443 1663 3443 1307 c 2
EndSplineSet
EndChar

StartChar: n
Encoding: 110 110 51
GlifName: n
Width: 2687
VWidth: 4730
Flags: HMW
LayerCount: 2
Fore
SplineSet
1579 1332 m 2
 1579 1676 1548 1717 1433 1717 c 0
 1218 1717 1109 1293 1109 913 c 1
 1094 913 l 1
 1094 1334 1191 1925 1777 1925 c 0
 2215 1925 2359 1663 2359 1307 c 2
 2359 0 l 1
 1579 0 l 1
 1579 1332 l 2
1417 19 m 1
 2645 19 l 1
 2645 0 l 1
 1417 0 l 1
 1417 19 l 1
43 19 m 1
 1273 19 l 1
 1273 0 l 1
 43 0 l 1
 43 19 l 1
331 1865 m 1
 43 1865 l 1
 43 1884 l 1
 1109 1884 l 1
 1109 0 l 1
 331 0 l 1
 331 1865 l 1
EndSplineSet
EndChar

StartChar: o
Encoding: 111 111 52
GlifName: o
Width: 2331
VWidth: 4730
Flags: HMW
LayerCount: 2
Fore
SplineSet
905 942 m 0
 905 352 1007 -21 1167 -21 c 0
 1327 -21 1429 352 1429 942 c 0
 1429 1532 1327 1905 1167 1905 c 0
 1007 1905 905 1532 905 942 c 0
105 942 m 0
 105 1474 508 1925 1167 1925 c 0
 1826 1925 2227 1474 2227 942 c 0
 2227 410 1826 -41 1167 -41 c 0
 508 -41 105 410 105 942 c 0
EndSplineSet
EndChar

StartChar: p
Encoding: 112 112 53
GlifName: p
Width: 2719
VWidth: 4730
Flags: HMW
LayerCount: 2
Fore
SplineSet
1094 942 m 0
 1094 1565 1317 1921 1747 1921 c 0
 2193 1921 2617 1556 2617 942 c 0
 2617 328 2193 -41 1747 -41 c 0
 1321 -41 1094 319 1094 942 c 0
1109 942 m 0
 1109 318 1366 35 1554 35 c 0
 1700 35 1735 323 1735 942 c 0
 1735 1561 1703 1845 1557 1845 c 0
 1364 1845 1109 1566 1109 942 c 0
43 -1005 m 1
 1395 -1005 l 1
 1395 -1024 l 1
 43 -1024 l 1
 43 -1005 l 1
331 1865 m 1
 43 1865 l 1
 43 1884 l 1
 1109 1884 l 1
 1109 -1024 l 1
 331 -1024 l 1
 331 1865 l 1
EndSplineSet
EndChar

StartChar: q
Encoding: 113 113 54
GlifName: q
Width: 2719
VWidth: 4730
Flags: HMW
LayerCount: 2
Fore
SplineSet
1629 939 m 0
 1629 316 1403 -41 973 -41 c 0
 527 -41 105 325 105 939 c 0
 105 1553 527 1921 973 1921 c 0
 1399 1921 1629 1562 1629 939 c 0
1613 939 m 0
 1613 1563 1358 1845 1165 1845 c 0
 1026 1845 987 1558 987 939 c 0
 987 320 1026 42 1165 42 c 0
 1370 42 1613 315 1613 939 c 0
2677 -1005 m 1
 2677 -1024 l 1
 1327 -1024 l 1
 1327 -1005 l 1
 2677 -1005 l 1
2677 1884 m 1
 2677 1865 l 1
 2391 1865 l 1
 2391 -1024 l 1
 1613 -1024 l 1
 1613 1884 l 1
 2677 1884 l 1
EndSplineSet
EndChar

StartChar: r
Encoding: 114 114 55
GlifName: r
Width: 2248
VWidth: 4730
Flags: HMW
LayerCount: 2
Fore
SplineSet
2141 1573 m 1
 2068 1780 1857 1903 1655 1903 c 0
 1126 1903 1109 1349 1109 913 c 1
 1094 913 l 1
 1094 1413 1124 1925 1661 1925 c 0
 1931 1925 2203 1713 2203 1389 c 0
 2203 1147 2040 934 1761 934 c 0
 1503 934 1313 1110 1313 1364 c 0
 1313 1780 1879 1964 2141 1573 c 1
43 19 m 1
 1395 19 l 1
 1395 0 l 1
 43 0 l 1
 43 19 l 1
331 1865 m 1
 43 1865 l 1
 43 1884 l 1
 1109 1884 l 1
 1109 0 l 1
 331 0 l 1
 331 1865 l 1
EndSplineSet
EndChar

StartChar: s
Encoding: 115 115 56
GlifName: s
Width: 1889
VWidth: 4730
Flags: HMW
LayerCount: 2
Fore
SplineSet
1554 1491 m 1
 1481 1602 1401 1683 1320 1756 c 1
 1636 1925 l 1
 1652 1925 l 1
 1652 1352 l 1
 1634 1352 l 1
 1608 1398 1585 1449 1554 1491 c 1
1649 1352 m 1
 1634 1352 l 1
 1470 1610 1267 1901 872 1901 c 0
 652 1901 535 1794 535 1672 c 0
 535 1280 1805 1434 1805 623 c 0
 1805 136 1379 -41 1023 -41 c 0
 597 -41 331 213 147 655 c 1
 163 655 l 1
 357 215 621 -21 1017 -21 c 0
 1292 -21 1425 100 1425 232 c 0
 1425 612 175 446 175 1290 c 0
 175 1675 482 1921 871 1921 c 0
 1272 1921 1485 1622 1649 1352 c 1
160 -41 m 1
 143 -41 l 1
 143 655 l 1
 163 655 l 1
 186 587 210 531 239 467 c 1
 322 322 399 240 476 166 c 1
 160 -41 l 1
EndSplineSet
EndChar

StartChar: t
Encoding: 116 116 57
GlifName: t
Width: 1640
VWidth: 4730
Flags: HMW
LayerCount: 2
Fore
SplineSet
3 1884 m 1
 1519 1884 l 1
 1519 1865 l 1
 3 1865 l 1
 3 1884 l 1
1641 418 m 1
 1543 156 1293 -29 879 -29 c 0
 420 -29 303 148 303 496 c 2
 303 2294 l 1
 549 2294 876 2315 1081 2417 c 1
 1081 392 l 2
 1081 187 1124 87 1235 87 c 0
 1350 87 1526 179 1624 422 c 1
 1641 418 l 1
EndSplineSet
EndChar

StartChar: u
Encoding: 117 117 58
GlifName: u
Width: 2687
VWidth: 4730
Flags: HMW
LayerCount: 2
Fore
SplineSet
1109 1884 m 1
 1109 552 l 2
 1109 208 1142 167 1257 167 c 0
 1472 167 1579 591 1579 971 c 1
 1597 971 l 1
 1597 550 1499 -41 913 -41 c 0
 475 -41 331 222 331 578 c 2
 331 1865 l 1
 43 1865 l 1
 43 1884 l 1
 1109 1884 l 1
2359 19 m 1
 2645 19 l 1
 2645 0 l 1
 1579 0 l 1
 1579 1865 l 1
 1335 1865 l 1
 1335 1884 l 1
 2359 1884 l 1
 2359 19 l 1
EndSplineSet
EndChar

StartChar: v
Encoding: 118 118 59
GlifName: v
Width: 2452
VWidth: 4730
Flags: HMW
LayerCount: 2
Fore
SplineSet
2474 1865 m 1
 1679 1865 l 1
 1679 1884 l 1
 2474 1884 l 1
 2474 1865 l 1
1376 1865 m 1
 -20 1865 l 1
 -20 1884 l 1
 1376 1884 l 1
 1376 1865 l 1
1553 561 m 1
 2081 1884 l 1
 2108 1884 l 1
 1338 -41 l 1
 1036 -41 l 1
 246 1884 l 1
 1106 1884 l 1
 1553 561 l 1
EndSplineSet
EndChar

StartChar: w
Encoding: 119 119 60
GlifName: w
Width: 3624
VWidth: 4730
Flags: HMW
LayerCount: 2
Fore
SplineSet
1458 1865 m 1
 -20 1865 l 1
 -20 1884 l 1
 1458 1884 l 1
 1458 1865 l 1
3645 1865 m 1
 2769 1865 l 1
 2769 1884 l 1
 3645 1884 l 1
 3645 1865 l 1
1413 606 m 1
 1925 1925 l 1
 2478 1925 l 1
 2830 713 l 1
 3219 1884 l 1
 3245 1884 l 1
 2601 -41 l 1
 2290 -41 l 1
 1739 1386 l 1
 1185 -41 l 1
 872 -41 l 1
 246 1884 l 1
 1081 1884 l 1
 1413 606 l 1
EndSplineSet
EndChar

StartChar: x
Encoding: 120 120 61
GlifName: x
Width: 2432
VWidth: 4730
Flags: HMW
LayerCount: 2
Fore
SplineSet
1016 19 m 1
 2413 19 l 1
 2413 0 l 1
 1016 0 l 1
 1016 19 l 1
20 19 m 1
 795 19 l 1
 795 0 l 1
 20 0 l 1
 20 19 l 1
1397 1865 m 1
 20 1865 l 1
 20 1884 l 1
 1397 1884 l 1
 1397 1865 l 1
2372 1865 m 1
 1659 1865 l 1
 1659 1884 l 1
 2372 1884 l 1
 2372 1865 l 1
2228 0 m 1
 1327 0 l 1
 246 1884 l 1
 1106 1884 l 1
 2228 0 l 1
340 0 m 1
 313 0 l 1
 2011 1884 l 1
 2039 1884 l 1
 340 0 l 1
EndSplineSet
EndChar

StartChar: y
Encoding: 121 121 62
GlifName: y
Width: 2612
VWidth: 4730
Flags: HMW
LayerCount: 2
Fore
SplineSet
1663 1865 m 1
 -61 1865 l 1
 -61 1884 l 1
 1663 1884 l 1
 1663 1865 l 1
2675 1865 m 1
 1876 1865 l 1
 1876 1884 l 1
 2675 1884 l 1
 2675 1865 l 1
1790 754 m 1
 1342 -121 l 1
 242 1884 l 1
 1184 1884 l 1
 1790 754 l 1
1026 -732 m 1
 2347 1884 l 1
 2370 1884 l 1
 1029 -768 l 2
 959 -907 818 -1028 621 -1028 c 0
 396 -1028 213 -877 213 -639 c 0
 213 -422 389 -221 643 -221 c 0
 872 -221 1083 -439 1026 -732 c 1
EndSplineSet
EndChar

StartChar: z
Encoding: 122 122 63
GlifName: z
Width: 2053
VWidth: 4730
Flags: HMW
LayerCount: 2
Fore
SplineSet
867 1865 m 2
 564 1865 280 1594 157 1180 c 1
 139 1180 l 1
 139 1884 l 1
 1945 1884 l 1
 1945 1865 l 1
 875 19 l 1
 1187 19 l 2
 1584 19 1867 246 1990 754 c 1
 2011 754 l 1
 2011 0 l 1
 23 0 l 1
 23 19 l 1
 1089 1865 l 1
 867 1865 l 2
EndSplineSet
EndChar

StartChar: comma
Encoding: 44 44 65
GlifName: comma
Width: 1372
Flags: HMW
LayerCount: 2
Fore
SplineSet
164 446 m 0
 164 704 405 934 684 934 c 0
 967 934 1217 684 1217 262 c 0
 1217 -270 770 -639 156 -639 c 1
 156 -619 l 1
 760 -619 1313 -227 1172 470 c 1
 1152 222 950 -41 652 -41 c 0
 358 -41 164 188 164 446 c 0
EndSplineSet
EndChar

StartChar: exclam
Encoding: 33 33 67
GlifName: exclam
Width: 1800
Flags: HMW
LayerCount: 2
Fore
SplineSet
1384 2536 m 0
 1338 2060 907 1672 907 1262 c 1
 887 1262 l 1
 887 1672 456 2060 410 2536 c 0
 406 2564 410 2590 410 2614 c 0
 410 2884 582 3104 898 3104 c 0
 1214 3104 1388 2884 1388 2614 c 0
 1388 2590 1388 2564 1384 2536 c 0
EndSplineSet
Refer: 1 46 N 1 0 0 1 246 0 2
EndChar

StartChar: quotesingle
Encoding: 39 39 70
GlifName: quotesingle
Width: 1310
Flags: HMW
LayerCount: 2
Fore
SplineSet
1102 2626 m 24
 1056 2318 665 2162 665 1712 c 1
 646 1712 l 1
 646 2162 254 2318 208 2626 c 24
 204 2654 204 2676 204 2700 c 0
 204 2942 414 3112 656 3112 c 0
 898 3112 1106 2942 1106 2700 c 0
 1106 2676 1106 2654 1102 2626 c 24
EndSplineSet
EndChar

StartChar: question
Encoding: 63 63 75
GlifName: question
Width: 2538
Flags: HMW
LayerCount: 2
Fore
SplineSet
1042 1501 m 1
 1357 1628 1430 1913 1430 2294 c 0
 1430 2679 1408 3067 1084 3067 c 0
 696 3067 345 2748 303 2505 c 1
 333 2579 484 2703 681 2703 c 0
 923 2703 1122 2560 1122 2314 c 0
 1122 2048 950 1880 684 1880 c 0
 397 1880 246 2069 246 2339 c 0
 246 2716 630 3113 1253 3113 c 0
 1912 3113 2335 2786 2335 2294 c 0
 2335 1823 1844 1527 1062 1490 c 1
 1062 1143 l 1
 1042 1143 l 1
 1042 1501 l 1
EndSplineSet
Refer: 1 46 N 1 0 0 1 528 0 2
EndChar

StartChar: parenleft
Encoding: 40 40 76
GlifName: parenleft
Width: 1565
Flags: HMW
LayerCount: 2
Fore
SplineSet
1495 -684 m 1
 1486 -696 l 1
 818 -410 266 378 266 1332 c 0
 266 2286 818 2990 1486 3276 c 1
 1495 3264 l 1
 1191 3060 1146 2118 1146 1332 c 0
 1146 546 1191 -480 1495 -684 c 1
EndSplineSet
EndChar

StartChar: at
Encoding: 64 64 79
GlifName: at
Width: 4136
VWidth: 4730
Flags: HMW
LayerCount: 2
Fore
SplineSet
2233 1508 m 0
 2233 844 1985 286 1453 286 c 0
 1086 286 836 516 836 942 c 0
 836 1556 1260 2166 1757 2166 c 0
 2168 2166 2233 1844 2233 1508 c 0
2208 1418 m 0
 2208 1590 2206 1891 2115 1891 c 0
 1979 1891 1740 1496 1740 988 c 0
 1740 714 1802 566 1900 566 c 0
 2026 566 2208 970 2208 1418 c 0
2130 860 m 2
 2424 2130 l 1
 3284 2130 l 1
 2975 802 l 2
 2929 602 2870 386 3058 386 c 0
 3433 386 3893 886 3893 1642 c 0
 3893 2380 3423 3217 2395 3217 c 0
 1217 3217 245 2136 245 864 c 0
 245 -414 978 -857 1716 -857 c 0
 2379 -857 2860 -651 3202 -252 c 1
 3216 -262 l 1
 2872 -664 2384 -876 1716 -876 c 0
 966 -876 226 -425 226 864 c 0
 226 2146 1196 3236 2396 3236 c 0
 3432 3236 3912 2392 3912 1642 c 0
 3912 946 3532 278 2708 278 c 0
 2098 278 2072 606 2130 860 c 2
EndSplineSet
EndChar

StartChar: dollar
Encoding: 36 36 80
GlifName: dollar
Width: 2600
Flags: HMW
LayerCount: 2
Fore
SplineSet
1332 3400 m 1
 1354 3400 l 1
 1354 -328 l 1
 1332 -328 l 1
 1332 3400 l 1
1048 3400 m 1
 1070 3400 l 1
 1070 -328 l 1
 1048 -328 l 1
 1048 3400 l 1
2218 2632 m 1
 2105 2919 1682 3081 1328 3081 c 0
 1058 3081 778 2952 778 2676 c 0
 778 1971 2437 2171 2437 942 c 0
 2437 369 1990 -61 1290 -61 c 0
 487 -61 102 328 102 676 c 0
 102 946 270 1135 532 1135 c 0
 737 1135 918 962 918 700 c 0
 918 454 684 352 504 352 c 0
 334 352 199 438 139 591 c 1
 195 284 580 -35 1249 -35 c 0
 1683 -35 1864 160 1864 478 c 0
 1864 1265 205 921 205 2232 c 0
 205 2764 761 3113 1257 3113 c 0
 1740 3113 2273 2892 2273 2478 c 0
 2273 2208 2126 2060 1864 2060 c 0
 1659 2060 1479 2183 1479 2433 c 0
 1479 2666 1673 2802 1853 2802 c 0
 2003 2802 2130 2756 2218 2632 c 1
EndSplineSet
EndChar

StartChar: numbersign
Encoding: 35 35 81
GlifName: numbersign
Width: 2584
Flags: HMW
LayerCount: 2
Fore
SplineSet
122 1032 m 1
 2339 1032 l 1
 2339 1013 l 1
 122 1013 l 1
 122 1032 l 1
246 2121 m 1
 2463 2121 l 1
 2463 2102 l 1
 246 2102 l 1
 246 2121 l 1
1855 3088 m 1
 1873 3092 l 1
 1464 -20 l 1
 1445 -24 l 1
 1855 3088 l 1
1082 3092 m 1
 1100 3092 l 1
 690 -20 l 1
 672 -20 l 1
 1082 3092 l 1
EndSplineSet
EndChar

StartChar: slash
Encoding: 47 47 82
GlifName: slash
Width: 2128
Flags: HMW
LayerCount: 2
Fore
SplineSet
1947 3194 m 1
 1966 3194 l 1
 183 -614 l 1
 164 -614 l 1
 1947 3194 l 1
EndSplineSet
EndChar

StartChar: percent
Encoding: 37 37 83
GlifName: percent
Width: 4258
Flags: HMW
LayerCount: 2
Fore
SplineSet
2970 860 m 0
 2970 162 3036 -21 3134 -21 c 0
 3232 -21 3298 162 3298 860 c 0
 3298 1558 3232 1743 3134 1743 c 0
 3036 1743 2970 1558 2970 860 c 0
2150 860 m 0
 2150 1446 2672 1762 3134 1762 c 0
 3596 1762 4116 1446 4116 860 c 0
 4116 274 3514 -40 3134 -40 c 0
 2672 -40 2150 274 2150 860 c 0
3199 3072 m 1
 3219 3072 l 1
 1061 0 l 1
 1041 0 l 1
 3199 3072 l 1
962 2212 m 0
 962 1514 1028 1329 1126 1329 c 0
 1224 1329 1290 1514 1290 2212 c 0
 1290 2910 1224 3093 1126 3093 c 0
 1028 3093 962 2910 962 2212 c 0
144 2212 m 0
 144 2798 664 3112 1126 3112 c 0
 1588 3112 2110 2798 2110 2212 c 0
 2110 1626 1506 1310 1126 1310 c 0
 664 1310 144 1626 144 2212 c 0
EndSplineSet
EndChar

StartChar: hyphen
Encoding: 45 45 85
GlifName: hyphen
Width: 1474
Flags: HMW
LayerCount: 2
Fore
SplineSet
246 1136 m 1
 1228 1136 l 1
 1228 1116 l 1
 246 1116 l 1
 246 1136 l 1
EndSplineSet
EndChar

StartChar: plus
Encoding: 43 43 87
GlifName: plus
Width: 2170
Flags: HMW
LayerCount: 2
Fore
SplineSet
1076 450 m 1
 1076 2130 l 1
 1095 2130 l 1
 1095 450 l 1
 1076 450 l 1
246 1304 m 1
 1926 1304 l 1
 1926 1284 l 1
 246 1284 l 1
 246 1304 l 1
EndSplineSet
EndChar

StartChar: less
Encoding: 60 60 89
GlifName: less
Width: 2292
Flags: HMW
LayerCount: 2
Fore
SplineSet
246 1582 m 1
 246 1600 l 1
 2048 2461 l 1
 2048 2442 l 1
 246 1582 l 1
246 1576 m 1
 246 1594 l 1
 2048 732 l 1
 2048 713 l 1
 246 1576 l 1
EndSplineSet
EndChar

StartChar: backslash
Encoding: 92 92 91
GlifName: backslash
Width: 2128
Flags: HMW
LayerCount: 2
Fore
SplineSet
184 3194 m 1
 1966 -614 l 1
 1946 -614 l 1
 164 3194 l 1
 184 3194 l 1
EndSplineSet
EndChar

StartChar: bracketleft
Encoding: 91 91 92
GlifName: bracketleft
Width: 1576
Flags: HMW
LayerCount: 2
Fore
SplineSet
1454 -614 m 1
 226 -614 l 1
 226 -595 l 1
 1454 -595 l 1
 1454 -614 l 1
1454 3175 m 1
 226 3175 l 1
 226 3194 l 1
 1454 3194 l 1
 1454 3175 l 1
1086 3194 m 1
 1086 -614 l 1
 226 -614 l 1
 226 3194 l 1
 1086 3194 l 1
EndSplineSet
EndChar

StartChar: braceleft
Encoding: 123 123 93
GlifName: braceleft
Width: 1604
VWidth: 4730
Flags: HMW
LayerCount: 2
Fore
SplineSet
1482 3194 m 1
 1482 3175 l 1
 1228 3175 1098 2908 1098 2650 c 0
 1098 2420 1236 2216 1236 1888 c 0
 1236 1548 1020 1371 226 1289 c 1
 226 1302 l 1
 348 1342 472 1454 472 1622 c 0
 472 1880 226 2064 226 2544 c 0
 226 2990 520 3194 1482 3194 c 1
1482 -614 m 1
 520 -614 226 -406 226 40 c 0
 226 520 472 704 472 962 c 0
 472 1130 348 1240 226 1280 c 1
 226 1295 l 1
 1020 1213 1236 1036 1236 696 c 0
 1236 368 1098 164 1098 -66 c 0
 1098 -324 1228 -595 1482 -595 c 1
 1482 -614 l 1
EndSplineSet
EndChar

StartChar: bar
Encoding: 124 124 96
GlifName: bar
Width: 946
VWidth: 4730
Flags: HMW
LayerCount: 2
Fore
SplineSet
463 3194 m 1
 484 3194 l 1
 484 -1024 l 1
 463 -1024 l 1
 463 3194 l 1
EndSplineSet
EndChar

StartChar: cent
Encoding: 162 162 98
GlifName: cent
Width: 2215
VWidth: 4730
Flags: HMW
LayerCount: 2
Fore
SplineSet
1244 2274 m 1
 1244 -348 l 1
 1225 -348 l 1
 1225 2274 l 1
 1244 2274 l 1
EndSplineSet
Refer: 40 99 N 1 0 0 1 0 0 2
EndChar

StartChar: sterling
Encoding: 163 163 99
GlifName: sterling
Width: 2812
VWidth: 4730
Flags: HMW
LayerCount: 2
Fore
SplineSet
2712 1135 m 1
 2712 131 2461 -123 1892 -123 c 0
 1331 -123 1024 123 766 123 c 0
 598 123 359 41 318 -82 c 1
 304 -82 l 1
 345 221 856 889 1319 889 c 0
 1647 889 1845 750 2074 750 c 0
 2402 750 2693 799 2693 1135 c 1
 2712 1135 l 1
1905 1628 m 1
 1905 1608 l 1
 61 1608 l 1
 61 1628 l 1
 1905 1628 l 1
319 2253 m 0
 319 2826 791 3113 1573 3113 c 0
 2237 3113 2671 2675 2671 2339 c 0
 2671 2048 2486 1819 2220 1819 c 0
 1954 1819 1704 2007 1704 2294 c 0
 1704 2560 1941 2765 2183 2765 c 0
 2418 2765 2528 2632 2580 2558 c 1
 2443 2834 2109 3056 1737 3056 c 0
 1454 3056 1266 2884 1266 2499 c 0
 1266 2093 1495 1986 1495 1597 c 0
 1495 819 262 840 315 -82 c 1
 295 -82 l 1
 217 487 651 807 651 1069 c 0
 651 1536 319 1782 319 2253 c 0
EndSplineSet
EndChar

StartChar: section
Encoding: 167 167 101
GlifName: section
Width: 2072
VWidth: 4730
Flags: HMW
LayerCount: 2
Fore
SplineSet
676 2699 m 0
 676 2265 1876 2224 1876 1597 c 0
 1876 1261 1634 1191 1454 1085 c 1
 1436 1085 l 1
 1536 1152 1623 1164 1623 1308 c 0
 1623 1681 295 1663 295 2408 c 0
 295 2834 643 3113 1114 3113 c 0
 1433 3113 1909 3010 1909 2576 c 0
 1909 2367 1765 2200 1540 2200 c 0
 1335 2200 1196 2364 1196 2552 c 0
 1196 2724 1351 2888 1552 2888 c 0
 1700 2888 1799 2820 1851 2746 c 1
 1745 3013 1397 3093 1114 3093 c 0
 901 3093 676 2900 676 2699 c 0
1901 664 m 0
 1901 238 1552 -41 999 -41 c 0
 639 -41 123 103 123 496 c 0
 123 705 267 872 492 872 c 0
 697 872 836 708 836 520 c 0
 836 348 686 201 485 201 c 0
 303 201 206 305 176 379 c 1
 248 112 641 -21 999 -21 c 0
 1339 -21 1520 213 1520 373 c 0
 1520 807 238 786 238 1413 c 0
 238 1749 479 1901 659 2007 c 1
 678 2007 l 1
 592 1958 502 1888 502 1784 c 0
 502 1411 1901 1409 1901 664 c 0
EndSplineSet
EndChar

StartChar: asciitilde
Encoding: 126 126 104
GlifName: asciitilde
Width: 2818
VWidth: 4730
Flags: HMW
LayerCount: 2
Fore
SplineSet
796 1668 m 0
 579 1668 429 1576 429 1404 c 1
 410 1404 l 1
 410 1876 614 2212 1020 2212 c 0
 1470 2212 1549 1826 1980 1826 c 0
 2237 1826 2389 1916 2389 2088 c 1
 2408 2088 l 1
 2408 1616 2204 1282 1798 1282 c 0
 1278 1282 1255 1668 796 1668 c 0
EndSplineSet
EndChar

StartChar: copyright
Encoding: 169 169 105
GlifName: copyright
Width: 3562
Flags: HMW
LayerCount: 2
Fore
SplineSet
204 1536 m 0
 204 2408 910 3112 1782 3112 c 0
 2654 3112 3358 2408 3358 1536 c 0
 3358 664 2654 -40 1782 -40 c 0
 910 -40 204 664 204 1536 c 0
223 1536 m 0
 223 678 924 -21 1782 -21 c 0
 2640 -21 3339 678 3339 1536 c 0
 3339 2394 2640 3093 1782 3093 c 0
 924 3093 223 2394 223 1536 c 0
EndSplineSet
Refer: 14 67 N 0.6 0 0 0.6 777 614 2
EndChar

StartChar: registered
Encoding: 174 174 106
GlifName: registered
Width: 3562
Flags: HMW
LayerCount: 2
Fore
SplineSet
204 1536 m 0
 204 2408 910 3112 1782 3112 c 0
 2654 3112 3358 2408 3358 1536 c 0
 3358 664 2654 -40 1782 -40 c 0
 910 -40 204 664 204 1536 c 0
223 1536 m 0
 223 678 924 -21 1782 -21 c 0
 2640 -21 3339 678 3339 1536 c 0
 3339 2394 2640 3093 1782 3093 c 0
 924 3093 223 2394 223 1536 c 0
EndSplineSet
Refer: 29 82 N 0.6 0 0 0.6 852 606 2
EndChar

StartChar: logicalnot
Encoding: 172 172 107
GlifName: logicalnot
Width: 1990
Flags: HMW
LayerCount: 2
Fore
SplineSet
1725 2499 m 1
 246 2499 l 1
 246 2520 l 1
 1744 2520 l 1
 1744 1692 l 1
 1725 1692 l 1
 1725 2499 l 1
EndSplineSet
EndChar

StartChar: guillemotleft
Encoding: 171 171 108
GlifName: guillemotleft
Width: 3092
Flags: HMW
LayerCount: 2
Fore
SplineSet
2256 1590 m 1
 2856 604 l 1
 2846 594 l 1
 1250 1573 l 1
 1250 1601 l 1
 2846 2580 l 1
 2856 2571 l 1
 2256 1590 l 1
1028 1590 m 1
 1710 604 l 1
 1700 594 l 1
 102 1573 l 1
 102 1601 l 1
 1700 2580 l 1
 1710 2571 l 1
 1028 1590 l 1
EndSplineSet
EndChar

StartChar: mu
Encoding: 181 181 111
GlifName: mu
Width: 2687
VWidth: 4730
Flags: HMW
LayerCount: 2
Fore
SplineSet
1006 -504 m 0
 1142 -504 1248 -622 1248 -778 c 0
 1248 -938 1162 -1064 862 -1064 c 0
 576 -1064 330 -864 330 -496 c 2
 330 1314 l 1
 349 1314 l 1
 349 -496 l 2
 349 -853 593 -1083 946 -1039 c 1
 946 -1039 l 1
 847 -1003 760 -909 760 -759 c 0
 760 -623 870 -504 1006 -504 c 0
EndSplineSet
Refer: 58 117 N 1 0 0 1 0 0 2
EndChar

StartChar: asciicircum
Encoding: 94 94 113
GlifName: asciicircum
Width: 2232
Flags: HMW
LayerCount: 2
Fore
SplineSet
1114 2962 m 1
 424 2570 l 1
 410 2580 l 1
 984 3154 l 1
 1250 3154 l 1
 1822 2580 l 1
 1808 2570 l 1
 1114 2962 l 1
EndSplineSet
EndChar

StartChar: degree
Encoding: 176 176 115
GlifName: degree
Width: 1310
Flags: HMW
LayerCount: 2
Fore
SplineSet
164 2786 m 0
 164 3056 386 3276 656 3276 c 0
 926 3276 1146 3056 1146 2786 c 0
 1146 2516 926 2294 656 2294 c 0
 386 2294 164 2516 164 2786 c 0
257 2786 m 0
 257 2558 428 2387 656 2387 c 0
 884 2387 1053 2558 1053 2786 c 0
 1053 3014 884 3183 656 3183 c 0
 428 3183 257 3014 257 2786 c 0
EndSplineSet
EndChar

StartChar: onequarter
Encoding: 188 188 119
GlifName: onequarter
Width: 2870
Flags: HMW
LayerCount: 2
Fore
SplineSet
2150 2662 m 1
 2170 2662 l 1
 188 -410 l 1
 169 -410 l 1
 2150 2662 l 1
EndSplineSet
Refer: 6 52 N 0.6 0 0 0.6 1106 -422 2
Refer: 3 49 N 0.6 0 0 0.6 -32 1458 2
EndChar

StartChar: onehalf
Encoding: 189 189 120
GlifName: onehalf
Width: 2990
Flags: HMW
LayerCount: 2
Fore
SplineSet
2147 2662 m 1
 2165 2662 l 1
 183 -410 l 1
 165 -410 l 1
 2147 2662 l 1
EndSplineSet
Refer: 4 50 N 0.6 0 0 0.6 1396 -414 2
Refer: 3 49 N 0.6 0 0 0.6 -32 1458 2
EndChar

StartChar: threequarters
Encoding: 190 190 121
GlifName: threequarters
Width: 3116
Flags: HMW
LayerCount: 2
Fore
SplineSet
2393 2662 m 1
 2411 2662 l 1
 429 -410 l 1
 411 -410 l 1
 2393 2662 l 1
EndSplineSet
Refer: 5 51 N 0.6 0 0 0.6 20 1450 2
Refer: 6 52 N 0.6 0 0 0.6 1352 -422 2
EndChar

StartChar: grave
Encoding: 96 96 123
GlifName: grave
Width: 1740
Flags: HMW
LayerCount: 2
Fore
SplineSet
614 2786 m 2
 415 2741 226 2892 226 3092 c 0
 226 3292 455 3485 656 3392 c 2
 1505 3000 l 1
 1499 2980 l 1
 614 2786 l 2
EndSplineSet
EndChar

StartChar: acute
Encoding: 180 180 124
GlifName: acute
Width: 1740
Flags: HMW
LayerCount: 2
Fore
SplineSet
1126 2786 m 2
 243 2980 l 1
 237 3000 l 1
 1086 3392 l 2
 1287 3485 1516 3292 1516 3092 c 0
 1516 2892 1325 2741 1126 2786 c 2
EndSplineSet
EndChar

StartChar: cedilla
Encoding: 184 184 128
GlifName: cedilla
Width: 2252
Flags: HMW
LayerCount: 2
Fore
SplineSet
1184 -574 m 0
 1184 -356 1029 -324 885 -324 c 1
 1255 168 l 1
 1280 168 l 1
 1034 -160 l 1
 1528 -172 1802 -262 1802 -492 c 0
 1802 -696 1606 -902 864 -902 c 1
 864 -881 l 1
 1106 -881 1184 -751 1184 -574 c 0
EndSplineSet
EndChar

StartChar: divide
Encoding: 247 247 131
GlifName: divide
Width: 2702
Flags: HMW
LayerCount: 2
Fore
SplineSet
164 1628 m 1
 2538 1628 l 1
 2538 1608 l 1
 164 1608 l 1
 164 1628 l 1
860 737 m 0
 860 1007 1082 1228 1352 1228 c 0
 1622 1228 1842 1007 1842 737 c 0
 1842 467 1622 246 1352 246 c 0
 1082 246 860 467 860 737 c 0
860 2437 m 0
 860 2707 1082 2928 1352 2928 c 0
 1622 2928 1842 2707 1842 2437 c 0
 1842 2167 1622 1946 1352 1946 c 0
 1082 1946 860 2167 860 2437 c 0
EndSplineSet
EndChar

StartChar: ring
Encoding: 730 730 271
GlifName: ring
Width: 1310
VWidth: 0
Flags: HMW
LayerCount: 2
Fore
SplineSet
204 2786 m 0
 204 2994 366 3154 656 3154 c 0
 946 3154 1106 2994 1106 2786 c 0
 1106 2578 946 2416 656 2416 c 0
 366 2416 204 2578 204 2786 c 0
552 2786 m 0
 552 2538 586 2435 656 2435 c 0
 726 2435 758 2538 758 2786 c 0
 758 3034 726 3135 656 3135 c 0
 586 3135 552 3034 552 2786 c 0
EndSplineSet
EndChar

StartChar: tilde
Encoding: 732 732 272
GlifName: tilde
Width: 1834
VWidth: 0
Flags: HMW
LayerCount: 2
Fore
SplineSet
466 2618 m 0
 296 2618 223 2506 223 2416 c 1
 204 2416 l 1
 204 2764 286 3100 610 3100 c 0
 978 3100 1060 2778 1368 2778 c 0
 1538 2778 1611 2888 1611 2978 c 1
 1630 2978 l 1
 1630 2588 1630 2294 1266 2294 c 0
 910 2294 802 2618 466 2618 c 0
EndSplineSet
EndChar

StartChar: AE
Encoding: 198 198 274
GlifName: A_E_
Width: 4468
Flags: HMW
LayerCount: 2
Fore
SplineSet
2145 3072 m 1
 2168 3072 l 1
 443 0 l 1
 419 0 l 1
 2145 3072 l 1
62 19 m 1
 962 19 l 1
 962 0 l 1
 62 0 l 1
 62 19 l 1
1004 1013 m 1
 2192 1013 l 1
 2192 994 l 1
 999 994 l 1
 1004 1013 l 1
2150 3072 m 1
 3032 3072 l 1
 3032 0 l 1
 2150 0 l 1
 2150 3072 l 1
2150 3072 m 1
 4305 3072 l 1
 4305 2232 l 1
 4286 2232 l 1
 4164 2670 3756 3053 3318 3053 c 2
 2150 3053 l 1
 2150 3072 l 1
4347 0 m 1
 1782 0 l 1
 1782 19 l 1
 3276 19 l 2
 3796 19 4206 402 4328 922 c 1
 4347 922 l 1
 4347 0 l 1
3714 1016 m 1
 3592 1290 3306 1580 3072 1580 c 2
 2826 1580 l 1
 2826 1599 l 1
 3072 1599 l 2
 3306 1599 3592 1868 3714 2142 c 1
 3732 2142 l 1
 3732 1016 l 1
 3714 1016 l 1
EndSplineSet
EndChar

StartChar: ae
Encoding: 230 230 277
GlifName: ae
Width: 3698
VWidth: 4730
Flags: HMW
LayerCount: 2
Fore
SplineSet
287 1458 m 0
 287 1732 643 1917 1098 1917 c 0
 1630 1917 2032 1663 2032 1249 c 1
 2052 741 l 1
 2052 233 1479 -41 983 -41 c 0
 414 -41 143 160 143 463 c 0
 143 807 458 1069 1040 1069 c 2
 1958 1069 l 1
 1958 1049 l 1
 1327 1049 l 2
 1139 1049 971 799 971 463 c 0
 971 189 1049 -9 1151 -9 c 0
 1262 -9 1376 205 1376 537 c 2
 1376 1249 l 2
 1376 1523 1291 1893 963 1893 c 0
 808 1893 557 1819 465 1720 c 1
 795 1894 1151 1720 1151 1466 c 0
 1151 1261 930 1110 705 1110 c 0
 459 1110 287 1270 287 1458 c 0
2810 1076 m 1
 2806 1472 2802 1905 2642 1905 c 0
 2482 1905 2437 1491 2437 1024 c 0
 2437 557 2472 9 2802 9 c 0
 3192 9 3472 242 3577 586 c 1
 3596 586 l 1
 3490 230 3191 -41 2654 -41 c 0
 2158 -41 1761 287 1761 942 c 0
 1761 1597 2146 1925 2642 1925 c 0
 3252 1925 3592 1502 3592 1056 c 1
 2147 1056 l 1
 2147 1076 l 1
 2810 1076 l 1
EndSplineSet
EndChar

StartChar: perthousand
Encoding: 8240 8240 285
GlifName: perthousand
Width: 6348
Flags: HMW
LayerCount: 2
Fore
SplineSet
5058 860 m 0
 5058 162 5124 -26 5222 -26 c 0
 5320 -26 5386 162 5386 860 c 0
 5386 1558 5320 1748 5222 1748 c 0
 5124 1748 5058 1558 5058 860 c 0
4240 860 m 0
 4240 1446 4760 1762 5222 1762 c 0
 5684 1762 6206 1446 6206 860 c 0
 6206 274 5602 -40 5222 -40 c 0
 4760 -40 4240 274 4240 860 c 0
2970 860 m 0
 2970 162 3036 -26 3134 -26 c 0
 3232 -26 3298 162 3298 860 c 0
 3298 1558 3232 1748 3134 1748 c 0
 3036 1748 2970 1558 2970 860 c 0
2150 860 m 0
 2150 1446 2672 1762 3134 1762 c 0
 3596 1762 4116 1446 4116 860 c 0
 4116 274 3514 -40 3134 -40 c 0
 2672 -40 2150 274 2150 860 c 0
3200 3072 m 1
 3216 3072 l 1
 1060 0 l 1
 1044 0 l 1
 3200 3072 l 1
962 2212 m 0
 962 1514 1028 1324 1126 1324 c 0
 1224 1324 1290 1514 1290 2212 c 0
 1290 2910 1224 3098 1126 3098 c 0
 1028 3098 962 2910 962 2212 c 0
144 2212 m 0
 144 2798 664 3112 1126 3112 c 0
 1588 3112 2110 2798 2110 2212 c 0
 2110 1626 1506 1310 1126 1310 c 0
 664 1310 144 1626 144 2212 c 0
EndSplineSet
EndChar

StartChar: uni2031
Encoding: 8241 8241 286
GlifName: uni2031
Width: 8436
Flags: HMW
LayerCount: 2
Fore
SplineSet
7148 860 m 0
 7148 162 7214 -26 7312 -26 c 0
 7410 -26 7476 162 7476 860 c 0
 7476 1558 7410 1748 7312 1748 c 0
 7214 1748 7148 1558 7148 860 c 0
6328 860 m 0
 6328 1446 6850 1762 7312 1762 c 0
 7774 1762 8294 1446 8294 860 c 0
 8294 274 7692 -40 7312 -40 c 0
 6850 -40 6328 274 6328 860 c 0
5058 860 m 0
 5058 162 5124 -26 5222 -26 c 0
 5320 -26 5386 162 5386 860 c 0
 5386 1558 5320 1748 5222 1748 c 0
 5124 1748 5058 1558 5058 860 c 0
4240 860 m 0
 4240 1446 4760 1762 5222 1762 c 0
 5684 1762 6206 1446 6206 860 c 0
 6206 274 5602 -40 5222 -40 c 0
 4760 -40 4240 274 4240 860 c 0
2970 860 m 0
 2970 162 3036 -26 3134 -26 c 0
 3232 -26 3298 162 3298 860 c 0
 3298 1558 3232 1748 3134 1748 c 0
 3036 1748 2970 1558 2970 860 c 0
2150 860 m 0
 2150 1446 2672 1762 3134 1762 c 0
 3596 1762 4116 1446 4116 860 c 0
 4116 274 3514 -40 3134 -40 c 0
 2672 -40 2150 274 2150 860 c 0
3200 3072 m 1
 3216 3072 l 1
 1060 0 l 1
 1044 0 l 1
 3200 3072 l 1
962 2212 m 0
 962 1514 1028 1324 1126 1324 c 0
 1224 1324 1290 1514 1290 2212 c 0
 1290 2910 1224 3098 1126 3098 c 0
 1028 3098 962 2910 962 2212 c 0
144 2212 m 0
 144 2798 664 3112 1126 3112 c 0
 1588 3112 2110 2798 2110 2212 c 0
 2110 1626 1506 1310 1126 1310 c 0
 664 1310 144 1626 144 2212 c 0
EndSplineSet
EndChar

StartChar: uniFB00
Encoding: 64256 64256 290
GlifName: uniF_B_00
Width: 3117
VWidth: 4730
Flags: HMW
LayerCount: 2
Fore
SplineSet
23.162 18.7508 m 1
 3014.5296 18.7508 l 1
 3014.5296 0 l 1
 23.162 0 l 1
 23.162 18.7508 l 1
23.162 1884 m 1
 3095.162 1884 l 1
 3095.162 1865.2492 l 1
 23.162 1865.2492 l 1
 23.162 1884 l 1
2202.6884 2544.3552 m 1
 2149.3208 2724.9564 1872.514 2883.9844 1650.5296 2883.9844 c 0
 1322.5296 2883.9844 1129.162 2527.3676 1129.162 2007.3676 c 2
 1129.162 0 l 1
 393.162 0 l 1
 393.162 1892 l 2
 393.162 2510 913.162 2908 1609.162 2908 c 0
 1981.7944 2908 2277.162 2654 2277.162 2380 c 0
 2277.162 2130 2125.162 1962 1879.162 1962 c 0
 1653.7944 1962 1445.162 2101.3676 1445.162 2347.3676 c 0
 1445.162 2593.3676 1605.162 2752.6324 1826.5296 2752.6324 c 0
 2030.19 2752.6324 2202.6884 2544.3552 2202.6884 2544.3552 c 1
3528.38 2746.5764 m 1
 3490.2772 2897.486 3281.9688 3089.2492 3001.162 3089.2492 c 0
 2673.162 3089.2492 2523.162 2732 2523.162 2212 c 2
 2523.162 0 l 1
 1785.162 0 l 1
 1785.162 2097.3676 l 2
 1785.162 2715.3676 2305.7944 3112.6324 2961.162 3112.6324 c 0
 3333.7944 3112.6324 3587.162 2858.6324 3587.162 2584.6324 c 0
 3587.162 2334.6324 3436.5296 2166.6324 3190.5296 2166.6324 c 0
 2965.162 2166.6324 2755.162 2306 2755.162 2552 c 0
 2755.162 2798 2946.7352 2957.3676 3168.1028 2957.3676 c 0
 3332.7196 2957.3676 3474.7912 2850.8692 3528.38 2746.5764 c 1
EndSplineSet
Ligature2: "'liga' Standard Ligatures lookup 0-1" f f
LCarets2: 1 0
EndChar

StartChar: uniFB01
Encoding: 64257 64257 291
GlifName: uniF_B_01
Width: 2778
VWidth: 4730
Flags: HMW
LayerCount: 2
Fore
SplineSet
393.162 2097.3676 m 2
 393.162 2756.7352 911.7944 3112.6324 1731.162 3112.6324 c 0
 2185.7944 3112.6324 2481.162 2858.6324 2481.162 2584.6324 c 0
 2481.162 2334.6324 2330.5296 2166.6324 2084.5296 2166.6324 c 0
 1859.162 2166.6324 1650.5296 2306 1650.5296 2552 c 0
 1650.5296 2798 1836.7352 2949.3676 2058.1028 2949.3676 c 0
 2222.7196 2949.3676 2351.5264 2871.9128 2421.5264 2731.3428 c 1
 2326.0248 2955.3832 2069.4548 3092.6168 1731.162 3092.6168 c 0
 1280.5296 3092.6168 1129.162 2732 1129.162 2212 c 2
 1129.162 0 l 1
 393.162 0 l 1
 393.162 2097.3676 l 2
23.162 18.7508 m 1
 2768.5296 18.7508 l 1
 2768.5296 0 l 1
 23.162 0 l 1
 23.162 18.7508 l 1
1703.162 1865.2492 m 1
 23.162 1865.2492 l 1
 23.162 1884 l 1
 2481.162 1884 l 1
 2481.162 0 l 1
 1703.162 0 l 1
 1703.162 1865.2492 l 1
EndSplineSet
Ligature2: "'liga' Standard Ligatures lookup 0-1" f i
LCarets2: 1 0
EndChar

StartChar: uniFB02
Encoding: 64258 64258 292
GlifName: uniF_B_02
Width: 3159
VWidth: 4730
Flags: HMW
LayerCount: 2
Fore
SplineSet
23.162 18.7508 m 1
 3116.5296 18.7508 l 1
 3116.5296 0 l 1
 23.162 0 l 1
 23.162 18.7508 l 1
23.162 1884 m 1
 1703.162 1884 l 1
 1703.162 1865.2492 l 1
 23.162 1865.2492 l 1
 23.162 1884 l 1
1969.162 2990 m 1
 2747.162 3154 l 1
 2747.162 0 l 1
 1969.162 0 l 1
 1969.162 2990 l 1
2155.3364 2709.4144 m 1
 2115.542 2882.648 1901.7632 3086.514 1609.162 3086.514 c 0
 1281.162 3086.514 1129.162 2732 1129.162 2212 c 2
 1129.162 0 l 1
 393.162 0 l 1
 393.162 2097.3676 l 2
 393.162 2715.3676 913.162 3112.6324 1568.5296 3112.6324 c 0
 1941.162 3112.6324 2195.162 2858.6324 2195.162 2584.6324 c 0
 2195.162 2334.6324 2043.162 2166.6324 1797.162 2166.6324 c 0
 1571.7944 2166.6324 1363.162 2306 1363.162 2552 c 0
 1363.162 2798 1523.162 2957.3676 1744.5296 2957.3676 c 0
 2009.9532 2957.3676 2132.57 2737.24 2155.3364 2709.4144 c 1
EndSplineSet
Ligature2: "'liga' Standard Ligatures lookup 0-1" f l
LCarets2: 1 0
EndChar

StartChar: uniFB03
Encoding: 64259 64259 293
GlifName: uniF_B_03
Width: 4088
VWidth: 4730
Flags: HMW
LayerCount: 2
Fore
SplineSet
1703.162 2097.3676 m 2
 1703.162 2756.7352 2223.7944 3112.6324 3043.162 3112.6324 c 0
 3497.7944 3112.6324 3792.5296 2858.6324 3792.5296 2584.6324 c 0
 3792.5296 2334.6324 3641.162 2166.6324 3395.162 2166.6324 c 0
 3169.7944 2166.6324 2961.162 2306 2961.162 2552 c 0
 2961.162 2798 3138 2949.3676 3359.3676 2949.3676 c 0
 3573.7632 2949.3676 3675.408 2854.2368 3721.408 2738.9316 c 1
 3632.6572 2950.7508 3387.5576 3089.2492 3043.162 3089.2492 c 0
 2592.5296 3089.2492 2441.162 2732 2441.162 2212 c 2
 2441.162 0 l 1
 1703.162 0 l 1
 1703.162 2097.3676 l 2
23.162 18.7508 m 1
 4079.162 18.7508 l 1
 4079.162 0 l 1
 23.162 0 l 1
 23.162 18.7508 l 1
393.162 1892 m 2
 393.162 2506 913.162 2908 1609.162 2908 c 0
 1981.7944 2908 2277.162 2654 2277.162 2380 c 0
 2277.162 2130 2125.162 1962 1879.162 1962 c 0
 1653.7944 1962 1445.162 2101.3676 1445.162 2347.3676 c 0
 1445.162 2593.3676 1605.162 2752.6324 1826.5296 2752.6324 c 0
 2030.19 2752.6324 2168.38 2610.3396 2168.38 2610.3396 c 1
 2080.704 2756.6324 1879.2492 2880.6168 1650.5296 2880.6168 c 0
 1322.5296 2880.6168 1129.162 2527.3676 1129.162 2007.3676 c 2
 1129.162 0 l 1
 393.162 0 l 1
 393.162 1892 l 2
3014.5296 1865.2492 m 1
 23.162 1865.2492 l 1
 23.162 1884 l 1
 3792.5296 1884 l 1
 3792.5296 0 l 1
 3014.5296 0 l 1
 3014.5296 1865.2492 l 1
EndSplineSet
Ligature2: "'liga' Standard Ligatures lookup 0-1" f f i
LCarets2: 2 0 0
EndChar

StartChar: uniFB04
Encoding: 64260 64260 294
GlifName: uniF_B_04
Width: 4551
VWidth: 4730
Flags: HMW
LayerCount: 2
Fore
SplineSet
23.162 18.7508 m 1
 4509.162 18.7508 l 1
 4509.162 0 l 1
 23.162 0 l 1
 23.162 18.7508 l 1
23.162 1884 m 1
 3095.162 1884 l 1
 3095.162 1865.2492 l 1
 23.162 1865.2492 l 1
 23.162 1884 l 1
3362.5296 2990 m 1
 4140.5296 3154 l 1
 4140.5296 0 l 1
 3362.5296 0 l 1
 3362.5296 2990 l 1
2171.7476 2614.3396 m 1
 2084.0716 2760.6324 1872.514 2883.9844 1650.5296 2883.9844 c 0
 1322.5296 2883.9844 1129.162 2527.3676 1129.162 2007.3676 c 2
 1129.162 0 l 1
 393.162 0 l 1
 393.162 1892 l 2
 393.162 2506 913.162 2908 1609.162 2908 c 0
 1981.7944 2908 2277.162 2654 2277.162 2380 c 0
 2277.162 2130 2125.162 1962 1879.162 1962 c 0
 1653.7944 1962 1445.162 2101.3676 1445.162 2347.3676 c 0
 1445.162 2593.3676 1605.162 2752.6324 1826.5296 2752.6324 c 0
 2002.1028 2752.6324 2164.7912 2618.7664 2171.7476 2614.3396 c 1
3525.6448 2745.7228 m 1
 3460.2772 2962 3204.3084 3093.2492 3001.162 3093.2492 c 0
 2673.162 3093.2492 2523.162 2732 2523.162 2212 c 2
 2523.162 0 l 1
 1785.162 0 l 1
 1785.162 2097.3676 l 2
 1785.162 2715.3676 2305.7944 3112.6324 2961.162 3112.6324 c 0
 3333.7944 3112.6324 3587.162 2858.6324 3587.162 2584.6324 c 0
 3587.162 2334.6324 3436.5296 2166.6324 3190.5296 2166.6324 c 0
 2965.162 2166.6324 2755.162 2306 2755.162 2552 c 0
 2755.162 2798 2915.7944 2957.3676 3137.162 2957.3676 c 0
 3405.7476 2957.3676 3504.7756 2777.9752 3525.6448 2745.7228 c 1
EndSplineSet
Ligature2: "'liga' Standard Ligatures lookup 0-1" f f l
LCarets2: 2 0 0
EndChar

StartChar: ogonek
Encoding: 731 731 295
GlifName: ogonek
Width: 2252
Flags: HMW
LayerCount: 2
Fore
SplineSet
1692 -544 m 1
 1630 -658 1552 -844 1138 -844 c 0
 806 -844 574 -738 574 -492 c 0
 574 -164 1057 78 1429 180 c 1
 1435 165 l 1
 1389 137 1282 -48 1282 -345 c 0
 1282 -615 1381 -728 1479 -728 c 0
 1567 -728 1619 -650 1679 -536 c 1
 1692 -544 l 1
EndSplineSet
EndChar

StartChar: dotlessi
Encoding: 305 305 296
GlifName: dotlessi
Width: 1514
VWidth: 4730
Flags: HMW
LayerCount: 2
Fore
SplineSet
82 19 m 1
 1434 19 l 1
 1434 0 l 1
 82 0 l 1
 82 19 l 1
368 1865 m 1
 82 1865 l 1
 82 1884 l 1
 1146 1884 l 1
 1146 0 l 1
 368 0 l 1
 368 1865 l 1
EndSplineSet
EndChar

StartChar: uni0237
Encoding: 567 567 297
GlifName: uni0237
Width: 1492
VWidth: 4730
Flags: HMW
LayerCount: 2
Fore
SplineSet
1204 1884 m 1
 1204 -49 l 2
 1204 -586 684 -1065 70 -1065 c 0
 -344 -1065 -680 -843 -680 -536 c 0
 -680 -290 -475 -119 -242 -119 c 0
 -17 -119 192 -258 192 -504 c 0
 192 -729 29 -897 -254 -897 c 0
 -477 -897 -584 -784 -621 -664 c 1
 -591 -847 -326 -1033 -12 -1033 c 0
 480 -1033 409 -428 409 92 c 2
 426 1865 l 1
 58 1865 l 1
 58 1884 l 1
 1204 1884 l 1
EndSplineSet
EndChar

StartChar: kgreenlandic
Encoding: 312 312 306
GlifName: kgreenlandic
Width: 2850
VWidth: 4730
Flags: HMW
LayerCount: 2
Fore
SplineSet
2674 0 m 1
 1720 0 l 1
 1012 1110 l 1
 2208 1884 l 1
 2235 1884 l 1
 1610 1476 l 1
 2674 0 l 1
1490 19 m 1
 2830 19 l 1
 2830 0 l 1
 1490 0 l 1
 1490 19 l 1
2568 1865 m 1
 1654 1865 l 1
 1654 1884 l 1
 2568 1884 l 1
 2568 1865 l 1
62 19 m 1
 1372 19 l 1
 1372 0 l 1
 62 0 l 1
 62 19 l 1
430 1865 m 1
 62 1865 l 1
 62 1884 l 1
 1208 1884 l 1
 1208 0 l 1
 430 0 l 1
 430 1865 l 1
EndSplineSet
EndChar

StartChar: breve
Encoding: 728 728 307
GlifName: breve
Width: 1310
VWidth: 4730
Flags: HMW
LayerCount: 2
Fore
SplineSet
143 3108 m 1
 143 2928 434 2888 656 2888 c 0
 878 2888 1169 2928 1169 3108 c 1
 1188 3108 l 1
 1188 2572 984 2334 656 2334 c 0
 328 2334 122 2572 122 3108 c 1
 143 3108 l 1
EndSplineSet
EndChar

StartChar: thorn
Encoding: 254 254 318
GlifName: thorn
Width: 2756
VWidth: 4730
Flags: HMW
LayerCount: 2
Fore
SplineSet
1109 942 m 0
 1109 1564 1338 1922 1766 1922 c 0
 2212 1922 2634 1556 2634 942 c 0
 2634 328 2212 -40 1766 -40 c 0
 1341 -40 1109 320 1109 942 c 0
1126 942 m 0
 1126 323 1377 37 1578 37 c 0
 1718 37 1754 314 1754 942 c 0
 1754 1570 1718 1843 1578 1843 c 0
 1377 1843 1126 1561 1126 942 c 0
62 -1005 m 1
 1414 -1005 l 1
 1414 -1024 l 1
 62 -1024 l 1
 62 -1005 l 1
348 3053 m 1
 62 3053 l 1
 62 3072 l 1
 1126 3072 l 1
 1126 -1024 l 1
 348 -1024 l 1
 348 3053 l 1
EndSplineSet
EndChar

StartChar: Thorn
Encoding: 222 222 319
GlifName: T_horn
Width: 3010
Flags: HMW
LayerCount: 2
Fore
SplineSet
430 3072 m 1
 1310 3072 l 1
 1310 0 l 1
 430 0 l 1
 430 3072 l 1
62 19 m 1
 1680 19 l 1
 1680 0 l 1
 62 0 l 1
 62 19 l 1
62 3072 m 1
 1680 3072 l 1
 1680 3053 l 1
 62 3053 l 1
 62 3072 l 1
1762 738 m 2
 1228 738 l 1
 1228 757 l 1
 1474 757 l 2
 1868 757 1926 1234 1926 1598 c 0
 1926 1962 1868 2439 1474 2439 c 2
 1228 2439 l 1
 1228 2458 l 1
 1762 2458 l 2
 2504 2458 2868 2130 2868 1598 c 0
 2868 1066 2504 738 1762 738 c 2
EndSplineSet
EndChar

StartChar: Lslash
Encoding: 321 321 324
GlifName: L_slash
Width: 2702
Flags: HMW
LayerCount: 2
Fore
SplineSet
62 1474 m 1
 1884 2376 l 1
 1884 2355 l 1
 62 1454 l 1
 62 1474 l 1
EndSplineSet
Refer: 23 76 N 1 0 0 1 0 0 2
EndChar

StartChar: lslash
Encoding: 322 322 325
GlifName: lslash
Width: 1601
VWidth: 4730
Flags: HMW
LayerCount: 2
Fore
SplineSet
41 1474 m 1
 1619 2376 l 1
 1619 2355 l 1
 41 1453 l 1
 41 1474 l 1
EndSplineSet
Refer: 49 108 N 1 0 0 1 0 0 2
EndChar

StartChar: eth
Encoding: 240 240 329
GlifName: eth
Width: 2702
VWidth: 4730
Flags: HMW
LayerCount: 2
Fore
SplineSet
614 2580 m 1
 2540 2580 l 1
 2540 2561 l 1
 614 2561 l 1
 614 2580 l 1
2498 1270 m 0
 2498 410 1994 -40 1294 -40 c 0
 594 -40 122 410 122 1024 c 0
 122 1720 646 2028 1142 2028 c 0
 1483 2028 1573 1666 1573 1146 c 1
 1556 1146 l 1
 1556 1760 1413 1959 1277 1959 c 0
 1117 1959 1064 1778 1064 1024 c 0
 1064 352 1082 -21 1282 -21 c 0
 1482 -21 1556 392 1556 1146 c 1
 1561 1365 l 1
 1561 2069 1184 3095 430 3095 c 1
 430 3112 l 1
 1626 3112 2498 2340 2498 1270 c 0
EndSplineSet
EndChar

StartChar: OE
Encoding: 338 338 330
GlifName: O_E_
Width: 4238
Flags: HMW
LayerCount: 2
Fore
SplineSet
1680 3053 m 1025,0,0
1126 1536 m 0,0,0
 1126 668 1294 19 1680 19 c 1,0,0
 1556 0 l 1,0,0
 724 0 164 622 164 1536 c 0,0,0
 164 2450 724 3072 1556 3072 c 1,0,0
 1680 3053 l 1,0,0
 1294 3053 1126 2404 1126 1536 c 0,0,0
EndSplineSet
Refer: 16 69 N 1 0 0 1 1496 0 2
EndChar

StartChar: germandbls
Encoding: 223 223 332
GlifName: germandbls
Width: 3526
VWidth: 4730
Flags: HMW
LayerCount: 2
Fore
SplineSet
1896 1653 m 1
 1896 1668 l 1
 2260 1668 2334 2076 2334 2338 c 0
 2334 2632 2242 3091 1856 3091 c 0
 1390 3091 1290 2552 1290 1970 c 2
 1290 0 l 1
 430 0 l 1
 430 2012 l 2
 430 2802 1228 3112 1896 3112 c 0
 2482 3112 3240 2884 3240 2380 c 0
 3240 1888 2720 1653 1896 1653 c 1
62 19 m 1
 1653 19 l 1
 1653 0 l 1
 62 0 l 1
 62 19 l 1
3362 778 m 0
 3362 204 2794 -40 2216 -40 c 0
 1762 -40 1446 262 1446 720 c 0
 1446 1010 1678 1150 1904 1150 c 0
 2108 1150 2330 1028 2330 758 c 0
 2330 504 2092 368 1892 368 c 0
 1694 368 1501 495 1468 685 c 1
 1478 261 1791 -9 2114 -9 c 0
 2396 -9 2458 394 2458 656 c 0
 2458 1042 2424 1650 1896 1650 c 1
 1896 1663 l 1
 2884 1663 3362 1310 3362 778 c 0
EndSplineSet
EndChar

StartChar: circumflex
Encoding: 710 710 335
GlifName: circumflex
Width: 1904
Flags: HMW
LayerCount: 2
Fore
SplineSet
950 2764 m 1
 214 2489 l 1
 204 2498 l 1
 738 3154 l 1
 1168 3154 l 1
 1700 2498 l 1
 1690 2489 l 1
 950 2764 l 1
EndSplineSet
EndChar

StartChar: caron
Encoding: 711 711 336
GlifName: caron
Width: 1904
Flags: HMW
LayerCount: 2
Fore
SplineSet
954 2928 m 1
 1690 3204 l 1
 1700 3194 l 1
 1168 2540 l 1
 738 2540 l 1
 204 3194 l 1
 214 3204 l 1
 954 2928 l 1
EndSplineSet
EndChar

StartChar: pi
Encoding: 960 960 337
GlifName: pi
Width: 2788
VWidth: 4730
Flags: HMW
LayerCount: 2
Fore
SplineSet
2646 422 m 1
 2552 136 2378 -40 1998 -40 c 0
 1642 -40 1418 98 1418 380 c 2
 1418 1720 l 1
 2196 1720 l 1
 2196 301 l 2
 2196 219 2226 127 2363 127 c 0
 2463 127 2555 204 2633 430 c 1
 2646 422 l 1
590 -40 m 0
 340 -40 144 94 144 320 c 0
 144 804 970 540 970 1142 c 2
 970 1844 l 1
 1200 1844 l 1
 1200 996 l 2
 1200 348 992 -40 590 -40 c 0
2564 1884 m 1
 2564 1106 l 1
 187 1106 l 1
 187 798 l 1
 168 798 l 1
 168 1884 l 1
 2564 1884 l 1
EndSplineSet
EndChar

StartChar: uni1E9E
Encoding: 7838 7838 338
GlifName: uni1E_9E_
Width: 4018
VWidth: 4730
Flags: HMW
LayerCount: 2
Fore
SplineSet
61 19 m 1
 1700 19 l 1
 1700 0 l 1
 61 0 l 1
 61 19 l 1
2880 1590 m 1
 2605 1646 2314 1690 2019 1700 c 1
 3055 2997 l 1
 2940 3038 2691 3091 2429 3091 c 0
 1552 3091 1331 2592 1331 1765 c 2
 1331 0 l 1
 430 0 l 1
 430 1806 l 2
 430 2719 1311 3113 2429 3113 c 0
 3056 3113 3567 2842 3731 2666 c 1
 2880 1590 l 1
1613 637 m 1
 1684 280 2044 7 2462 7 c 0
 2847 7 2949 352 2949 860 c 0
 2949 1286 2711 1682 2019 1682 c 1
 2019 1700 l 1
 3334 1700 3854 1413 3854 881 c 0
 3854 308 3285 -41 2626 -41 c 0
 1921 -41 1577 385 1577 762 c 0
 1577 1053 1782 1253 2048 1253 c 0
 2294 1253 2474 1073 2474 803 c 0
 2474 549 2257 369 2015 369 c 0
 1818 369 1671 510 1613 637 c 1
EndSplineSet
EndChar

StartChar: uni203D
Encoding: 8253 8253 339
GlifName: uni203D_
Width: 2948
Flags: HMW
LayerCount: 2
Fore
SplineSet
1827 2269 m 0
 1782 1876 1432 1426 1432 1139 c 1
 1412 1139 l 1
 1412 1426 1143 1876 1098 2269 c 0
 1094 2298 1094 2322 1094 2347 c 0
 1094 2462 1188 2654 1462 2654 c 0
 1736 2654 1831 2462 1831 2347 c 0
 1831 2322 1831 2298 1827 2269 c 0
246 2339 m 0
 246 2716 672 3113 1458 3113 c 0
 2076 3113 2744 2826 2744 2253 c 0
 2744 1680 1999 1372 1421 1372 c 1
 1421 1388 l 1
 1736 1371 2044 1843 2044 2294 c 0
 2044 2679 1810 3063 1364 3063 c 0
 745 3063 362 2762 304 2472 c 1
 334 2580 487 2703 684 2703 c 0
 926 2703 1040 2457 1040 2314 c 0
 1040 2027 827 1880 643 1880 c 0
 438 1880 246 2048 246 2339 c 0
EndSplineSet
Refer: 1 46 N 1 0 0 1 733 0 2
EndChar

StartChar: R.alt
Encoding: 65536 -1 340
GlifName: R_.alt
Width: 3194
Flags: HMW
LayerCount: 2
Fore
SplineSet
1576.6324 1570.7352 m 2
 798.6324 1570.7352 l 1
 798.6324 1587.6916 l 1
 1372 1587.6916 l 2
 1765.3676 1587.6916 1946 1786 1946 2314 c 0
 1946 2842 1765.3676 3053.2492 1372 3053.2492 c 2
 61.3676 3053.2492 l 1
 61.3676 3072 l 1
 1576.6324 3072 l 2
 2318 3072 2846.6324 2846 2846.6324 2314 c 0
 2846.6324 1782 2358.6324 1570.7352 1576.6324 1570.7352 c 2
61.3676 18.7508 m 1
 1679.3676 18.7508 l 1
 1679.3676 0 l 1
 61.3676 0 l 1
 61.3676 18.7508 l 1
430 3072 m 1
 1310.6324 3072 l 1
 1310.6324 0 l 1
 430 0 l 1
 430 3072 l 1
3154 0 m 1
 3088 0 2687.3676 0 2540 0 c 0
 1340 0 2400.6324 1566.3084 1352 1566.3084 c 2
 798.6324 1566.3084 l 1
 798.6324 1581.3676 l 1
 1925.3676 1581.3676 l 2
 3289.3676 1581.3676 2424.6324 18.7508 3010.6324 18.7508 c 0
 3096.6324 18.7508 3096.6324 18.7508 3154 18.7508 c 1
 3154 0 l 1
EndSplineSet
EndChar

StartChar: J.alt
Encoding: 65537 -1 341
GlifName: J_.alt
Width: 2972
Flags: HMW
LayerCount: 2
Fore
SplineSet
1090 3072 m 1
 2912 3072 l 1
 2912 3053.2492 l 1
 1090 3053.2492 l 1
 1090 3072 l 1
1622 3072 m 1
 2502.6324 3072 l 1
 2502.6324 696 l 1
 2256.6324 204 1892 -122.6324 1110 -122.6324 c 0
 508 -122.6324 61.3676 307.3676 61.3676 758 c 0
 61.3676 1134.6324 336 1352 622.6324 1352 c 0
 888.6324 1352 1098 1154.6324 1098 864 c 0
 1098 598 893.3676 376.6324 594 376.6324 c 0
 325.7072 376.6324 165.0748 509.2492 96.7508 637.6604 c 1
 179.1776 215.0592 613.7944 -88.514 1028 -88.514 c 0
 1400.6324 -88.514 1622 204.6324 1622 778 c 2
 1622 3072 l 1
EndSplineSet
EndChar

StartChar: four.alt
Encoding: 65538 -1 342
GlifName: four.alt
Width: 2928
VWidth: 4730
Flags: HMW
LayerCount: 2
Fore
SplineSet
2662 18.7508 m 1
 2662 0 l 1
 1085.3676 0 l 1
 1085.3676 18.7508 l 1
 2662 18.7508 l 1
2355.3676 2040 m 1
 2355.3676 -4 l 1
 1474.6324 -4 l 1
 1474.6324 1753.3676 l 1
 1720.6324 1753.3676 2191.3676 1917.3676 2355.3676 2040 c 1
97.6044 807.6916 m 1
 2724 807.6916 l 1
 2724 788.3084 l 1
 61.3676 788.3084 l 1
 634.7352 1607.676 1228.6324 2458 1310.6324 3072 c 1
 2286 3072 l 1
 2208 2273.3676 675.6044 1602.324 97.6044 807.6916 c 1
EndSplineSet
EndChar

StartChar: fj.lig
Encoding: 65539 -1 343
GlifName: fj.lig
Width: 2772
VWidth: 4730
Flags: HMW
LayerCount: 2
Fore
SplineSet
40.6324 18.7508 m 1
 1516 18.7508 l 1
 1516 0 l 1
 40.6324 0 l 1
 40.6324 18.7508 l 1
2498.6324 -49.3676 m 2
 2498.6324 -586 1978 -1064.6324 1364 -1064.6324 c 0
 950 -1064.6324 614 -872.7352 614 -557.3676 c 0
 614 -307.3676 806.6324 -118.6324 1052.6324 -118.6324 c 0
 1278 -118.6324 1486.6324 -258 1486.6324 -504 c 0
 1486.6324 -750 1291.6916 -897.3676 1058.3084 -897.3676 c 0
 859.9284 -897.3676 748.2836 -798.8848 684.1808 -689.6824 c 1
 733.6824 -880.648 982.0312 -1036.6168 1302.6324 -1036.6168 c 0
 1794.6324 -1036.6168 1720 -438 1720 82 c 2
 1720 1865.2492 l 1
 40.6324 1865.2492 l 1
 40.6324 1884 l 1
 2498.6324 1884 l 1
 2498.6324 -49.3676 l 2
2374.246 2833.2088 m 1
 2290.6012 2955.4704 2086.9252 3089.2492 1748.6324 3089.2492 c 0
 1298 3089.2492 1146.6324 2732 1146.6324 2212 c 2
 1146.6324 0 l 1
 410 0 l 1
 410 2097.3676 l 2
 410 2756.7352 929.2648 3112.6324 1748.6324 3112.6324 c 0
 2203.2648 3112.6324 2498.6324 2858.6324 2498.6324 2584.6324 c 0
 2498.6324 2334.6324 2347.3676 2166.6324 2101.3676 2166.6324 c 0
 1876 2166.6324 1667.3676 2306 1667.3676 2552 c 0
 1667.3676 2798 1854.2056 2949.3676 2075.5732 2949.3676 c 0
 2215.9844 2949.3676 2317.3208 2892.4424 2374.246 2833.2088 c 1
EndSplineSet
Ligature2: "'liga' Standard Ligatures lookup 0-1" f j
LCarets2: 1 0
EndChar

StartChar: uni2116
Encoding: 8470 8470 344
GlifName: uni2116
Width: 4938
Flags: HW
LayerCount: 2
Fore
SplineSet
3788 2334 m 0
 3788 1868 3850 1570 4010 1570 c 0
 4170 1570 4232 1868 4232 2334 c 0
 4232 2800 4170 3098 4010 3098 c 0
 3850 3098 3788 2800 3788 2334 c 0
3194 2334 m 0
 3194 2866 3556 3112 4010 3112 c 0
 4464 3112 4826 2866 4826 2334 c 0
 4826 1802 4464 1556 4010 1556 c 0
 3556 1556 3194 1802 3194 2334 c 0
EndSplineSet
Refer: 85 45 N 1 0 0 1 3272 164 2
Refer: 25 78 N 1 0 0 1 0 0 2
EndChar

StartChar: Euro
Encoding: 8364 8364 345
GlifName: E_uro
Width: 3030
Flags: HW
LayerCount: 2
Fore
SplineSet
2773 2710 m 1
 2669 2886 2371 3076 2003 3076 c 0
 1516 3076 1393 2413 1393 1536 c 0
 1393 578 1540 20 1946 20 c 0
 2335 20 2676 343 2778 729 c 1
 2798 729 l 1
 2692 332 2352 -41 1774 -41 c 0
 951 -41 389 594 389 1536 c 0
 389 2396 934 3113 1880 3113 c 0
 2503 3113 2888 2777 2888 2441 c 0
 2888 2150 2695 1982 2449 1982 c 0
 2224 1982 2011 2130 2011 2417 c 0
 2011 2683 2207 2847 2449 2847 c 0
 2592 2847 2726 2770 2773 2710 c 1
EndSplineSet
Refer: 88 61 N 1 0 0 1 -123 -287 2
EndChar

